<svg width="50" height="33" viewBox="0 0 50 33" fill="none" xmlns="http://www.w3.org/2000/svg">
<path d="M49.9107 5.4891L49.7227 8.14246L48.9505 9.37081L47.7851 8.96037L46.2976 9.30245L45.5112 10.6989L45.0639 11.1121L44.6621 11.5967L44.4028 13.4036L44.34 16.3505L43.7759 16.7067L43.2602 16.8179L41.1089 19.4L42.3483 20.1239L42.8955 20.674L43.8016 22.2044L45.0894 23.9287L45.346 24.7694L44.2632 24.5813L43.887 24.6383L43.6449 24.9034L43.1405 24.8492L42.5193 24.8521L41.8696 25.157L41.5106 25.2852L41.0318 25.0059L40.1342 24.168L39.59 23.5838L39.1883 23.4356L38.7808 23.6095L37.3276 23.809L36.9829 24.1481L36.3103 24.5243L35.638 24.7039L34.6663 24.8321L34.1562 24.815L33.8712 24.9945L33.6319 25.5446L33.4694 26.0804L33.327 26.297L32.1188 26.5621L31.851 26.8698L31.7798 27.1691L31.8026 27.4684L30.8395 27.1776L30.0958 27.3743L29.9191 27.6023L29.7652 27.9329L29.8508 28.2834L30.1241 28.6255L30.3835 29.5488L30.4775 30.4694L30.3181 30.9938L29.7652 31.3644L28.6226 31.7776L27.5142 31.5809L27.0297 31.7434L26.2091 31.7947L25.454 31.903L24.2943 32.2792L23.2458 32.5015L22.3054 31.7348L21.1883 31.2133L20.0144 30.9026L19.6069 31.1278L19.4302 31.3073L18.4473 30.629L18.0085 30.3867L17.7947 30.1246L17.3872 29.2182L17.145 29.1898L16.3357 29.526L15.555 29.5118L15.0849 29.4492L13.6887 29.489L13.5035 30.1075L13.3326 30.2015L13.0305 30.2842L12.2896 30.2443L11.3407 30.7031L10.3235 30.9824L9.5285 30.9881L8.71075 30.8542L8.22066 30.951L7.16342 30.9995L6.49385 31.6664L5.45087 31.6294L4.57329 31.5182L4.68164 31.3073L4.85834 28.6539L5.29139 27.4655L5.27435 27.2204L5.18026 27.0352L4.79556 26.8442L4.5192 26.2001L3.94076 24.5043L3.6131 24.1624L2.70404 23.8032L1.90907 23.313L1.23376 22.6633L0 21.0615L0.62401 20.9019L0.812013 20.5742L1.43602 19.6907L1.50733 19.2575L1.44176 19.0124L1.02297 18.5878L0.737925 17.6558L0.951668 16.7865L0.971668 16.3391L0.760708 15.8945L0.98019 15.3416L1.43046 15.0395L1.71255 14.9511L2.895 14.8913L3.64441 13.7826L4.10024 13.4293L4.56755 12.7994L4.78425 12.5685L4.9893 12.0784L5.06061 11.5767L4.12302 10.8728L3.80389 10.3427L3.3851 9.75559L2.82092 9.35089L1.68403 8.65544L1.2395 7.94868L1.04002 7.03091L0.737925 6.33554L0.404528 5.8824L0.341919 5.51189L0.202264 5.05875L0.170959 4.16673L0.441572 2.97821L0.615488 2.55647L1.00019 2.43957L2.02595 1.80404L2.0743 0.99178L2.25952 0.484453L2.58439 0.193781L2.88648 0L3.44771 0.473059L4.80982 1.22835L5.47383 1.77551L5.43957 2.11472L5.12895 2.45097L4.53625 2.78156L4.19155 3.21765L4.09746 3.75629L4.18581 4.1382L4.59608 4.47166L7.04099 4.03557L9.51998 4.26075L12.848 4.99891L15.0536 5.2554L16.6864 4.91341L19.7038 5.53181L22.5162 6.10758L25.2147 6.27571L26.7248 5.82543L27.7878 5.21835L28.7024 4.07262L30.9619 2.55925L33.1475 1.70715L36.014 1.01744L37.9288 0.783735L38.1966 1.01744L40.633 2.41113L41.7186 2.41678L42.5962 2.66475L42.9183 3.0324L43.1376 3.12363L44.3059 2.77878L44.8216 3.53972L45.6281 4.60561L47.0043 5.15277L48.2295 5.46057L48.6171 5.50902L49.9107 5.4891Z" fill="black"/>
</svg>
