<svg width="77" height="66" viewBox="0 0 77 66" fill="none" xmlns="http://www.w3.org/2000/svg">
<path d="M39.7667 0.0427049L40.8582 1.28819L41.1146 1.33664L41.7216 0.846444L41.8412 0.815046L43.095 0.772341L43.6762 1.20557L44.1094 2.04914L44.5082 2.72172L44.9414 2.90411L46.1609 2.05766L46.8362 1.77551L47.2808 1.78413L48.8452 2.54507L49.5803 2.96116L49.7485 3.33733L49.7655 3.78195L49.566 4.44027L49.4093 5.15564L49.8852 5.99921L50.438 6.57212L51.6205 5.62591L52.0565 5.36368L52.5323 5.35516L53.1706 5.00456L53.6322 4.47453L54.0738 4.29206L54.9202 4.41748L56.4474 4.29206L58.2283 5.12146L58.3822 5.37795L59.2712 6.34694L59.5818 6.82861L59.8752 6.98247L60.3483 7.45561L60.9838 7.75203L61.4226 7.66079L61.6334 7.81752L61.8301 8.18803L61.8443 8.82078L61.7815 10.622L61.4709 11.1407L61.1433 11.5625L61.0607 11.8902L61.092 12.2864L61.5963 13.0616L62.2461 14.2614L62.397 14.954V15.4755L61.5109 17.0032L61.2174 17.3594L61.0123 18.109L60.904 18.8699L60.9666 19.1862L62.4483 20.3947L63.5454 21.0473L63.7904 21.3665L63.8132 21.566L63.232 22.857L63.175 23.2048L64.0525 23.7377L64.5398 24.5784L64.9673 25.9465L65.8021 27.2546L67.6001 28.4117L68.9081 29.1641L69.1815 29.5061L69.2756 29.9108L69.1759 30.8028L68.8368 31.8887L68.606 32.4901L69.1389 32.7409L70.5093 32.6725L72.1763 32.8834L74.1737 34.0747L74.1795 34.6077L73.9743 35.095L74.1111 35.6051L74.3277 36.0383L76.0573 37.3636L76.2225 37.7483L76.251 38.3925L76.2054 38.8627L75.7268 38.9596L75.1939 39.1791L74.3249 39.7434L73.983 40.5385L72.5753 41.6329L71.709 42.1288L71.0166 42.1488L69.3697 41.9265L68.7912 41.3878L68.5519 40.8919L67.9192 40.6667L67.0787 40.6468L65.919 40.7323L65.6825 40.8834L65.4915 41.4904L64.9986 42.5307L64.6452 43.1149L64.9359 43.474L65.3976 44.2207L66.1155 45.1669L66.8564 46.0077L67.0929 46.5207L67.0815 46.8883L66.731 47.3187L66.7823 48.185L67.5004 49.3222L67.2582 49.5046L67.1841 50.8983L67.1926 52.3832L67.3865 52.7422L67.771 53.0386L68.0989 53.5801L68.643 54.8113L68.6801 55.1334L67.1642 55.0422L65.3433 55.0792L64.3204 55.7946L63.9216 55.6293L63.2092 55.4469L62.4198 55.8459L61.3427 57.0515L60.6191 57.801L59.9152 58.8498L59.693 59.4169L59.2485 60.46L58.841 61.6513L59.0632 62.4835L59.3966 63.2559L59.4707 64.0881L59.6359 64.7379L59.1914 65.211L58.9321 65.8922L58.1742 65.7725L57.2453 65.1198L57.0486 64.1736L56.3334 63.5152L55.8634 63.1705L55.0882 63.1191L53.8487 63.4269L52.2275 63.6634L51.005 63.7261L50.3382 64.0625L49.3523 64.3931L48.9705 63.9998L48.4234 62.9254L47.9761 61.8537L47.6655 61.3835L47.3976 61.2524L47.067 61.278L46.6881 61.6172L46.4032 61.9677L46.0015 62.0902L45.3802 62.3725L44.9272 62.7543L44.4313 63.7404L44.1037 63.672L43.7645 63.444L43.3743 62.3411L42.8384 62.0874L41.9809 62.0732L40.9181 61.8395L40.0546 61.5031L39.7412 61.583L39.2253 62.0533L38.6726 62.1216L37.4531 61.7027L37.2166 61.8964L36.8945 62.5149L36.5156 63.1105L36.1851 63.1705L35.9999 63.0165L36.1025 61.9591L35.3957 61.5858L34.2047 61.5259L33.367 61.6799L32.9595 61.6371L32.7487 61.4319L31.7228 59.6506L31.1814 59.5366L30.2097 59.625L28.7765 59.4084L27.1239 59.0066L26.2149 58.8584L25.7448 58.4565L24.7275 58.3197L21.992 57.5645L20.8779 57.4305L19.2337 57.4191L16.7319 57.2509L15.1277 57.345L14.3841 57.5958L13.5263 57.7526L12.076 57.8893L11.4861 57.8751L10.5572 57.9578L9.49146 58.1601L9.18659 58.5334L8.83615 59.3571L7.61091 60.7764L6.42271 61.7169L6.20619 61.7967L5.51087 61.298L4.93243 61.1298L4.25137 61.0757L3.7698 61.2353L3.46788 61.4718L3.50771 62.5634L3.43936 62.6574L2.915 61.3635L2.95779 60.1893L3.2484 59.5167L3.60458 58.9096L3.45936 58.0005L3.80685 56.795L3.81832 55.92L3.66441 55.5438L3.38232 55.1078L2.60735 54.6232L2.26543 54.2442L1.21672 53.7368L0.176699 53.1071L0 52.7194L0.0485225 52.4544L0.230786 52.0497L1.02593 50.8669L1.88647 49.7155L2.43639 49.2538L5.35696 47.7718L5.80723 47.2531L5.92114 46.3753L5.92688 45.7369L5.87279 44.597L5.69331 42.9724L5.47105 41.8495L4.91243 39.7348L3.39084 35.3372L2.47621 30.7401L3.0717 31.0109L4.4679 31.1106L5.57644 30.7943L6.15193 30.7487L6.66498 30.8513L7.42847 30.6689L8.12657 30.5948L8.48849 31.0081L9.13824 31.3729L10.4233 30.8485L11.5602 30.1958L12.7399 30.2671L12.908 29.945L13.2014 28.3063L13.552 27.9472L14.9625 28.1124L15.4839 27.8161L16.031 27.0066L16.8631 26.4994L17.5584 26.5022L18.282 25.9322L18.6382 26.3141L18.812 26.9952L18.5727 27.5367L18.6753 27.7505L19.1768 28.0184L20.0344 28.0099L20.5843 27.7876L20.7127 27.4769V26.9126L20.5758 26.3854L20.2111 25.9322L19.5273 25.6956L19.0514 25.69L18.9716 25.3992L19.1341 24.7808L19.5558 23.6351L20.0744 22.6005L20.3906 22.2101L20.4449 21.8481L20.3849 21.2211L20.3736 20.0897L20.8381 18.4937L21.4649 17.3024L22.3054 16.9119L23.3341 16.7039L23.9924 16.1338L24.3171 15.4784L24.4397 14.9226L24.5964 14.4438L24.9241 14.2329L27.3973 14.3641L27.7765 13.3295L27.99 13.0416L28.4631 12.7338L28.7937 12.3662L28.6711 12.0811L28.0385 11.8987L26.551 11.7363L26.2519 11.3915L26.346 10.9782L26.742 9.90658L27.121 8.5215L27.3177 7.44709L27.3375 6.81147L27.5512 6.64048L28.7622 6.43818L29.1697 6.22152L30.2127 4.75094L31.0076 4.50019L33.0621 4.87923L34.0025 4.8507L34.2588 4.88488L35.1992 4.95046L35.3018 4.80226L35.7235 3.34585L36.1396 2.92124L37.7551 0.99752L38.8408 0.179517L39.5274 0L39.7667 0.0427049Z" fill="black"/>
</svg>
