<svg width="74" height="100" viewBox="0 0 74 100" fill="none" xmlns="http://www.w3.org/2000/svg">
<path d="M19.5928 3.77621L19.4075 4.04983L19.4959 2.09184L20.3707 0L20.741 0.0484453L20.3621 0.615524L20.2509 1.0117L20.0971 1.80117L20.1655 2.21161L22.163 2.32555L21.9293 2.69041L19.9034 2.9355L19.5928 3.77621ZM31.0446 3.24331L31.0931 3.49693L32.2642 3.86458L32.7571 4.45166L33.3042 5.34089L33.3584 6.61769L32.6574 7.53537L32.0761 8.1168L34.2731 7.89736L34.4925 8.42174L34.8259 8.9889L36.0083 8.58421L38.9775 10.2572L40.7726 9.44204L41.2314 9.3936L41.6389 10.7445L41.1915 12.1011L39.61 13.5432L39.9606 14.4324L40.4677 14.6291L41.958 14.441L44.3202 15.3159L44.8131 15.0423L46.728 13.0217L47.4944 12.5856L50.0133 12.2749L50.4721 11.4883L51.4922 10.6989L52.1476 9.83535L53.7233 8.18516L55.3532 8.48157L56.3049 8.7979L57.3478 8.9575L58.2967 10.716L60.7016 12.6512L62.9098 12.483L63.6935 14.3099L64.0411 16.5557L64.7192 17.2596L65.3149 17.7184L67.1128 18.1972L67.184 18.2258L67.244 18.5278L67.3551 19.6394L67.5061 20.5571L68.4322 24.2108L68.415 25.1L68.4036 25.3365L68.0645 26.582L67.4633 27.628L66.6683 28.2179L66.2295 28.8734L66.1497 29.5945L67.1499 30.857L69.2329 32.6611L70.0734 34.2001L69.6772 35.4769L69.5576 36.4117L69.7115 37.0044L70.0449 37.4805L70.5578 37.8395L70.763 38.3924L70.6576 39.1392L70.7545 39.6578L71.139 40.0254L71.102 40.168L70.9169 40.6867L70.6632 41.6301L70.5179 42.3198L69.931 43.2546L70.1105 44.0497L70.5692 44.9845L70.9197 45.4547L71.0308 45.8993L70.8086 46.9538L70.9197 47.2246L72.37 47.9998L72.6065 48.356L72.7462 49.0999L73.2562 50.6873L72.8345 52.6938L72.4641 53.791L71.6378 55.5267L71.5978 55.6863L71.5039 55.8971L71.2559 56.1993L70.9112 56.2449L70.3896 56.0197L70.0334 55.729L70.1162 54.9823L69.8854 54.931L69.6004 54.4721L69.4892 53.9792L69.1816 53.7768L68.0617 53.5687L67.6798 53.4234L67.3864 53.5288L67.1669 53.8794L67.3066 54.1957L67.5146 54.5035L68.1358 54.9909L68.073 55.1846L66.7339 55.6607L65.8933 56.1451L65.1097 56.4187L64.3118 56.9203L62.7361 57.4846L61.5792 57.6328L61.3399 57.781L60.9096 58.7358L60.619 58.9353L60.3369 58.8326L60.1259 58.6759L59.8581 58.8042L59.579 59.1205L59.2854 59.2431L59.0318 59.2402L58.5788 60.0724L57.2623 60.3232L57.1084 60.7536L56.8662 61.2523L56.6725 61.3748L56.0798 61.1782L55.2563 61.0671L54.7833 61.3407L54.2163 61.4917L53.5238 61.5373L52.7517 62.0817L51.9994 63.0364L51.5777 63.8801L51.3497 64.1821L50.9821 63.3898L50.532 62.8484L50.2128 62.5661H49.9279L49.8538 62.683V63.0963L50.1587 63.7831L50.5348 64.2534L50.5947 64.6011L50.7969 65.2281L51.3468 65.915L52.2074 66.4565L52.7944 66.9922L53.2304 67.7333L53.2332 67.9612L53.1136 68.2634L52.9083 68.5484L52.7345 68.9188L52.2558 69.6656L52.3983 69.9933L52.7887 70.4037L53.1335 70.8967L53.578 71.6947L54.1878 73.0913L54.581 73.6641L55.1167 74.2569L55.641 74.7072L56.4674 74.6929L57.3222 75.5537L58.2568 76.7963L58.955 77.3634L59.4421 77.5373L59.8468 77.9847L60.203 78.626L60.3426 78.9965L60.6588 79.2644L61.5136 79.2131L62.6136 80.222L63.2917 80.9573L63.6507 81.5501L63.5568 81.7867L63.5112 82.5248L63.5225 83.3057L63.4142 83.719L62.9241 84.2633L62.6705 84.3802L62.5338 84.497L61.0265 83.7873L60.9068 83.907L60.8127 83.9954L60.408 86.0445L60.1317 86.4378L59.7157 86.7998L58.8551 87.1532L58.2568 87.2957L57.7895 87.4753L56.3106 88.3302L55.6467 88.8432L55.2164 89.4874L55.2136 89.8579L55.9316 90.9437L56.7608 92.0666L56.7636 93.0499L56.3989 93.7852L56.3134 94.0673L56.5585 94.1756L57.0173 94.2155L57.4019 94.3409L57.5643 94.8597L57.5159 95.7574L57.3849 96.5981L57.2481 96.9515L56.8776 96.98L56.1653 96.6181L55.6096 96.1963L55.396 95.9369L55.3846 95.6263L55.5042 95.4296L55.3076 95.0477L54.6238 94.6914L53.8914 94.8454L53.3529 95.082L53.0024 95.0677L52.6263 94.7257L52.045 94.4635L51.287 94.2896L50.8141 94.1072L50.7143 94.2155L50.7685 94.9537L50.6231 95.2757L46.8733 95.7032L45.7307 96.1023L44.8986 96.6181L44.2832 96.8403L44.1321 97.1568L43.5224 97.5729L42.8356 97.7039L42.6675 97.57L42.2258 97.761L41.4736 97.9462L40.9863 97.8863L40.7555 97.5501L40.2911 97.0342L40.103 96.678L40.1229 96.447L39.0715 96.4015L38.4105 96.1278L37.0028 96.1906L36.6552 96.0737L36.5839 96.1963L36.3731 97.6612L36.0938 98.2597L35.6436 98.8782L35.0652 99.223L34.6064 99.2857L34.6264 98.8354L34.7432 98.291L34.4098 98.1628L33.9112 98.103L33.6719 97.9405L33.7345 97.5244L33.6177 97.2822L33.4125 96.9914L32.911 96.6181L31.851 96.0652L31.1301 95.7887L30.8595 96.0823L30.3437 96.3758L29.5316 96.2789L29.3321 96.3958L27.9387 95.5123L26.6024 94.663H26.1607L24.1917 94.834L24.1347 94.7599L23.79 94.2754L23.488 94.1215L23.3056 94.2013L23.1831 94.3409L22.9722 94.3181L22.0889 93.5372L21.727 93.4233L21.2255 93.5287L20.6328 93.9505L20.3735 94.4664L20.4533 94.7628L20.7582 94.891L21.5645 94.8055L21.6814 94.891L21.7098 95.0591L21.6216 95.2216L20.969 95.3555L20.781 95.5522L20.5901 95.6006L20.4676 95.632L19.7722 95.4268H18.7379L17.903 95.7887L16.5695 95.9341L14.7373 95.8628L14.0791 95.5921L13.6773 95.4296L13.3867 94.6316L13.4607 93.4489L13.8968 91.8785L14.0193 90.7242L13.8254 89.989L14.0848 88.8831L14.7971 87.4068L15.273 85.8479L15.5095 84.2006L15.8543 83.1262L16.5324 82.3709L18.1424 80.2561L18.2734 80.0965L18.2279 79.0393L17.7947 78.8882L17.1593 78.5833L15.5437 78.207L14.0392 77.9648L13.3554 77.6655L12.7569 76.8647L12.3866 76.8532L11.6599 77.1411L10.7538 77.3349L10.0927 77.1668L9.67955 77.1981L9.44876 77.3463L9.33189 77.2152L9.16667 76.5284L8.82188 76.3489L8.28614 76.1893L7.95283 76.2576L7.72195 76.5996L7.36577 76.8391L7.04099 76.7621L6.01801 75.1717L5.75583 74.8184L5.69035 74.4935L5.43392 73.9007L4.82408 73.3079L4.2172 73.1197L3.91511 73.1853L3.94937 72.45L4.18581 71.3813L4.41381 70.8226L4.71582 70.3667L5.03782 70.0474L5.10904 69.4717L5.05774 68.9274L4.68729 68.8419L3.75841 68.44L3.20849 68.0154L2.801 67.4824L2.26534 66.75L2.03734 66.0033L2.02595 65.2594L2.08864 64.926L2.12856 64.6951L2.55882 63.5324L4.07468 62.4893L3.90659 61.4376L3.8838 60.7906L3.51623 60.3688L2.78109 60.1978L2.58726 59.9043L2.50465 59.6165L3.04318 58.9695L2.39065 58.4593L2.09438 57.9549L1.18819 57.288L1.09132 57.0571L1.52733 55.1049L1.19393 54.5348L0.780795 54.2442L0.299222 54.1017L0.0769578 53.831L0 53.5203L0.0854797 53.3293L0.652532 53.3863L0.829231 53.1839L2.17986 52.0326L2.23682 51.8103L2.04873 51.6848L1.80368 51.6193L1.74099 51.377L1.74959 51.0578L2.47048 49.3906L2.68422 48.6781L2.73265 48.1736L2.687 47.6749L2.27099 46.8911L1.86925 46.2642L1.85499 45.7654L1.5615 45.5032L0.72949 44.1609V43.6421L1.19958 43.2374L1.85786 42.981L2.07725 42.7672L2.47048 42.6332L3.51623 43.0209L3.98354 43.3571L4.11459 43.2888L4.53634 42.9239L5.27713 42.981L7.06942 42.2457L7.33734 41.8922L7.53673 41.516L7.55386 41.3508L6.85863 40.624L6.83863 40.356L6.92985 40.054L7.12647 39.8146L7.53673 39.6521L7.97274 39.3329L8.95006 38.4267L9.2892 37.6401L9.39459 36.785L9.41459 36.1466L9.14667 35.6393L8.87597 35.3116L8.5084 35.3629L7.79326 35.3372L7.1236 35.0522L6.75602 34.5905L6.66481 34.1858L6.83298 33.9293L6.88429 33.6158L6.77594 33.2995L6.81872 33.0344L7.12073 32.8207L9.23789 32.8263L9.39746 32.5926L9.5399 31.3615L10.0699 29.4833L10.5686 28.4345L10.6512 27.9928L10.6427 25.499L10.711 24.2307L10.3491 23.6351L9.5599 22.9825L9.72799 21.6202L9.99016 20.5542L10.7851 19.2432L11.4149 18.8841L14.1646 18.6704L17.2021 18.7588L18.4644 20.7394L17.9971 21.7541L18.7351 22.2272L19.0913 22.0533L19.362 21.1698L19.5415 20.1894L19.8008 19.893L20.741 20.6255L21.0716 21.1271L21.0916 22.7345L21.4392 20.5542L21.1799 19.0238L21.3565 17.5361L21.7355 16.7608L22.0831 16.2678L24.3114 16.8008L26.7733 16.5271L27.7051 17.1028L29.8108 19.9728L30.5147 20.443L31.4008 20.5912L30.1784 19.9785L27.6253 16.4844L26.8617 16.0512L25.6877 15.9201L24.9554 15.5781L24.4938 15.048L24.3599 14.572L24.3855 11.0238L23.9467 10.4937L23.3768 10.3113L23.0206 10.5535L22.2911 10.5564L22.1373 9.74985L22.3168 9.15137L23.7814 8.74093L24.7474 8.1909L24.7901 7.21904L24.1803 6.45235L23.4509 5.04448L22.5932 3.71924L22.4963 2.17456H22.4992L23.9923 2.203L24.357 2.26284L26.6195 2.98673L27.1723 3.49406L27.8675 3.51685L29.1213 3.04379L30.0588 2.83574L30.4206 3.12929L30.9307 3.25183H31.0446V3.24331ZM21.8324 4.80504L21.5218 5.14424L20.7582 5.10432L20.3308 4.78512L20.4703 4.44601L20.875 4.18665L21.2112 4.14672L21.7184 4.30632L21.8324 4.80504ZM62.7874 9.34228L62.9869 10.2628L62.7731 10.7331L61.8755 9.95215L60.9722 9.96363L60.4338 11.1635L60.032 11.2148L58.6386 10.1232L58.4135 9.59025L58.3679 9.14563L58.5674 7.6066L58.5304 7.12215L58.9691 6.59204L59.0376 5.82256L59.8098 5.01317L60.4993 4.98177L60.7159 5.66862L61.0463 6.14176L62.2032 6.67179L62.3771 6.91123L62.4825 7.2447L61.9439 7.89449L61.7616 8.22795L61.9326 8.76085L62.7874 9.34228ZM43.3856 8.86061L42.1575 8.88627L41.6873 8.33911L41.2171 8.19943L41.4708 7.52398L41.8013 7.27601L42.9895 7.71776L43.3628 8.58134L43.3856 8.86061ZM66.8022 15.2361L66.6968 15.6608L66.8193 16.3134L66.4888 16.265L65.4972 16.4189L64.517 16.2023L64.329 15.39L64.4857 14.6091L64.0924 14.0704L63.7305 13.7541L63.6764 13.3038L63.7363 12.8336L65.426 14.0932L66.8022 15.2361Z" fill="black"/>
</svg>
