<svg width="115" height="113" viewBox="0 0 115 113" fill="none" xmlns="http://www.w3.org/2000/svg">
<path d="M60.9836 4.79947L61.4595 4.65979L62.2659 4.1582L62.9383 3.9986L63.323 4.38338L63.5396 4.60282L63.9613 5.46918L64.081 6.36981L64.2691 7.11937L64.611 7.42143L65.896 7.52119L66.8449 7.79769L67.0957 8.04844L67.4205 9.70714L67.5972 9.94085L67.8337 9.74707L68.0674 9.47344L68.3922 9.43074L68.9478 9.53615L69.6801 9.57033L70.4352 9.75272L71.4781 10.6875L71.4382 10.9953L71.236 11.534L71.1646 11.9643L71.3442 12.1382L71.6206 12.5828L71.5551 13.0958L71.2872 13.4549L71.1789 13.7513V13.9422L71.2787 14.1018L71.4924 14.2415L73.0339 14.4296L74.4444 14.2415L75.3334 13.7171L75.4845 13.1642L75.7352 12.5429L76.2652 12.0185L76.6299 11.8418L76.9661 12.0556L76.402 14.2473L76.8151 14.8058L76.8749 15.638L77.0231 16.3676L77.5274 16.3534L78.1373 16.4873L78.5703 16.7552L79.0747 17.1884L79.8013 17.5875L80.3114 17.7271L80.4966 18.0576L80.9098 18.4424L81.5594 19.2462L82.1407 19.7819H82.4228L82.9642 19.571L83.7677 19.4371L84.4003 19.4485L84.671 19.856L85.2951 20.0442L85.5145 20.1952L85.7595 20.4773L86.1755 20.5913L86.677 20.4773L87.0418 20.104L87.529 19.933L88.0191 19.99L88.3012 20.1952L88.8369 20.5002L89.1389 20.4346L89.7458 20.6227L90.3557 21.2155L90.6121 21.8083L90.6777 22.1332L90.9398 22.4866L91.9627 24.0769L92.2876 24.1538L92.6438 23.9145L92.8746 23.5725L93.208 23.504L93.7436 23.6636L94.0884 23.8432L94.2536 24.5301L94.3705 24.6612L94.6013 24.513L95.0145 24.4816L95.6756 24.6498L96.5817 24.456L97.3083 24.1681L97.6787 24.1795L98.2771 24.9804L98.9609 25.2796L100.465 25.5219L102.081 25.898L102.716 26.203L103.15 26.3541L103.195 27.4114L103.064 27.571L101.454 29.6857L100.776 30.4409L100.431 31.5154L100.195 33.1627L99.7189 34.7217L99.0065 36.198L98.7473 37.3038L98.941 38.0391L98.8185 39.1934L98.3825 40.7637L98.3084 41.9465L98.5991 42.7445L99.0008 42.9069L98.0349 43.4427L97.8154 43.913L97.4365 44.5314L96.821 44.7907L96.2027 44.8762L95.7012 44.7965L95.4163 44.5485L95.4305 44.3177L95.1655 44.121L94.5073 44.1267L93.8262 44.5514L93.2821 45.2468L93.4501 45.6344L93.9516 45.7369L94.0827 45.8909V46.0903L93.9061 46.3298L93.6952 46.7402L92.6438 47.9599L91.5838 49.1883L91.4128 49.5588L91.0765 49.8182L89.7288 50.4737L89.5891 50.7359L89.5122 51.8274L89.3612 52.7224L88.361 53.5631L87.3666 54.3981L87.1187 54.9083L86.9392 55.4983L86.6286 56.1651L86.5659 56.5186L87.0702 57.0914L87.0104 57.5645L86.8508 58.2371L86.375 58.7131L85.845 58.9838L85.8564 59.7134L86.1385 59.816L86.7767 59.7619L87.6801 59.2318L88.2699 58.5477L87.9222 57.9008L87.8794 57.7754L87.9649 57.6215L88.6631 56.9147L89.5179 56.4901L90.7118 56.4102L92.1508 56.661L92.2933 56.7665L92.2249 57.1997L92.3588 57.8381L92.6181 58.2856L92.262 59.5538L92.5327 59.9499L92.9514 60.426L93.2649 60.8591L93.7151 61.2553L94.1169 61.925L94.2536 62.3041L93.6097 62.9595L92.5213 63.5752L92.3987 63.9713L92.4129 64.4187L92.5354 64.7722L93.1367 65.2253L93.7835 66.2485L94.1938 67.1605L95.0914 68.0326L95.3108 68.2919L95.2538 68.5086L95.0173 68.879L94.7096 70.116L94.342 70.3097L93.9317 70.3895L92.8204 71.293L92.3246 71.1818L91.6208 71.1932L91.1051 71.4896L91.162 72.0511L91.6151 72.5641L91.8801 73.1227L91.9884 73.7041L92.4899 74.1345L93.1966 74.391L93.6012 74.408L93.8633 74.562L94.0229 74.7615L94.3277 76.004L94.1454 76.3147L93.7635 76.4458L93.5356 76.956L93.0826 77.7055L92.8261 78.3069L93.111 78.837L93.2308 79.2303L93.0797 79.635L93.2821 80.262L93.8177 80.8832L95.2737 81.7553L96.6272 82.465L97.0461 82.5819L98.8755 82.1259L99.1775 82.1658L99.3997 82.7073L99.4967 83.0721L99.2915 83.6192L98.7871 84.3917L98.2514 84.993L97.9266 85.5031L97.995 85.9677L98.0149 86.5833L97.579 86.7657L97.5647 86.646L97.3852 86.5406L97.2313 86.6004L97.1117 86.7343L97.0946 86.9709L96.1657 87.3642L95.5245 87.7717L92.9914 90.2L91.806 90.9096L91.5724 91.3371L91.3301 92.1351L90.6349 92.8191L90.0251 93.144L88.5177 93.4775L87.0019 94.2013L86.318 93.8879L84.5513 93.9221L83.4486 93.05L81.3286 92.4971L80.6391 91.2231L79.6731 91.1404L79.0405 91.1803L78.6616 90.9866L78.5647 90.5505L78.5562 90.1315L77.8865 90.3254H77.3736L77.0687 90.4935L76.8294 90.6873L76.5444 90.5647L76.3792 90.6075L76.3934 90.8526L75.7779 90.9153L75.1083 90.7643L73.3559 90.1059L73.0881 90.0033L71.8714 89.7496L71.3813 89.4846L70.9823 88.8319L70.6803 88.6268L70.5007 88.5042L69.3667 88.8348L68.9735 89.3478L68.3609 89.9491L64.1551 92.8904L63.3857 94.1187L62.4967 95.9228L62.4283 96.7636L62.8102 99.4425L63.665 100.845L63.7732 101.17L63.2974 101.173L62.5024 100.996L61.8441 100.779L61.2144 100.899L60.6104 101.19L60.0804 101.366L59.6985 101.415L59.445 101.583L59.3225 101.916L59.2996 102.15L58.63 102.093L57.0828 101.614L55.6922 101.284L54.8745 101.66L54.3501 102.01L53.9825 101.956L53.7004 101.586L53.5124 101.224L52.9682 100.89L51.7372 100.392L51.7999 100.152L52.0108 99.8159L52.005 99.6078L51.7686 99.3L50.6345 98.9694L50.0988 98.8868L49.7597 99.1148L49.5146 99.394L48.8849 98.3681L48.4347 98.1572L47.7565 98.123L46.9787 97.8094L46.1694 97.4076L44.2061 96.7663L43.6676 96.6895L43.4511 96.792L43.3058 97.1768L43.2288 98.2598L43.1462 98.3795L42.2343 98.4165L41.1116 98.2654L40.5959 98.3395L40.1372 98.3424L39.704 98.0545L37.7636 98.3823L37.4416 98.2227L36.9743 97.7353L36.45 97.3392L36.0454 97.1369L35.6977 96.9032L35.3843 96.8661L34.9056 97.0913L34.2445 97.1882L33.6974 97.1596L33.4039 97.191L32.173 95.9883L31.9935 95.6605L31.3809 95.5694L30.6229 95.5551L28.691 94.7742L27.8105 94.3553L27.6823 94.1045L27.6937 93.9021L27.5426 93.9477L27.2719 94.304L27.1295 94.5947L26.9414 94.6488L26.665 94.6032L26.4085 94.4379L26.2518 94.227L26.4199 93.8594L26.7163 93.3777L26.8388 92.8533L26.8104 92.383L26.323 92.081L25.605 91.9556L25.0779 91.9185L24.394 91.6506L24.0692 91.4568L23.7557 90.9324L23.7443 90.5505L25.0465 90.2142L26.2176 88.8319L27.3289 83.7931L28.1325 77.7825L28.728 76.6424L29.4802 76.329L28.8733 75.4968L28.4944 75.9185L28.3348 76.366L28.1353 76.5912L28.5826 71.0194L28.9018 68.9674L29.446 66.8128L30.5602 67.6678L31.4834 68.537L31.9592 69.2894L32.5633 71.7861L33.0221 72.3104L33.7059 72.8348L33.4352 72.262L32.9652 71.8231L32.2299 68.4914L31.7683 67.5424L31.0503 66.7444L28.7366 65.06L28.5286 64.7323L28.4146 64.0881L29.1811 64.1167L29.8421 64.4302L29.7652 64.0711L29.5686 63.6948L29.2608 62.324L29.0044 59.112L29.0386 58.562L28.9246 57.8837L28.1838 57.7327L27.5911 57.707L26.9528 57.4391L23.8013 55.5353L22.7242 53.5631L21.6215 52.1039L21.3565 51.4655L21.3736 50.8186L21.9464 49.4505L21.442 48.5841L20.949 48.4131L20.5216 47.9827L20.9091 47.2674L21.2311 46.8086L21.8779 46.686L22.7242 46.8371L23.5278 47.2532L24.1575 47.3643L22.2968 46.2499L19.2764 46.6262L18.6239 46.4836L18.0768 46.2357L17.8602 45.4149L18.2905 45.0472L18.678 44.3633L18.2393 43.8845L17.6693 43.7021L16.7746 43.7106L15.9397 43.8559L15.7289 43.5795L16.2389 42.8157L15.8058 42.5364L15.2274 42.6675L14.3896 42.8242L13.5889 42.5849L12.831 41.7156L12.3295 41.7213L11.9847 41.8296L11.4746 41.4933L10.9361 41.4106L10.5514 41.5218L10.0414 41.0231L6.89559 40.0199L5.53931 39.8973L4.29407 40.3505L3.60736 40.1937L3.10301 39.5439L2.68126 38.4552L0.675315 37.6144L1.07132 37.0615L2.00595 36.9304L3.08022 36.5485L3.46771 36.0555L2.62717 35.4826L2.00595 35.3402L1.74951 35.1349L1.48733 34.6191L1.85777 34.3826L2.11995 34.5079L2.87787 34.582L4.17155 34.4566L3.68997 33.9351L3.18849 33.8182L2.9577 33.6871L1.90342 33.6301L1.42472 33.8097L0.347571 33.7413L0.113915 33.1798L0 32.6953L0.33331 31.6181L1.84925 30.6519L5.62757 29.5945L7.25177 29.7484L8.37727 29.5574L9.7279 28.8906L10.3235 28.3177L12.244 27.9814L14.0676 28.5884L15.7488 30.8799L16.5524 31.6551L18.5213 30.3099L21.4534 30.3498L22.0575 31.1079L22.3025 30.4695L22.8411 29.7199L23.2713 30.0619L23.4907 30.5264L26.5852 30.3954L27.0724 30.2614L26.2404 29.717L25.5622 28.4118L25.4198 23.5867L24.5621 22.233L23.5791 20.0641L23.126 18.773L23.0832 18.3256L23.2343 17.6786L24.4424 17.7128L25.377 17.8781L27.1579 17.3908L28.0128 17.7243L27.9615 18.7331L28.2237 20.0042L28.5199 20.6199L28.9731 21.3181L30.4063 21.2554L31.9536 21.6658L33.9112 21.7285L36.7691 22.4353L37.9858 22.0249L39.1655 21.15L41.4109 20.5743L41.5903 20.2721L40.2968 20.3918L39.1113 19.8361L38.9518 19.2348L39.0886 18.6933L39.5701 17.4449L43.0065 15.4699L45.4685 14.8857L48.0386 13.794L49.3323 12.674L50.1871 11.2234L50.4635 10.9042L50.8197 10.6363L50.4892 10.1147L50.7114 4.52872L50.9508 3.51694L51.4522 2.68763L52.2159 2.04636L53.3728 1.3509L57.6384 0.390519L58.271 0L58.3593 0.604218L58.6699 1.37656L58.8836 1.79839L58.7041 2.34842L58.8438 2.80156L59.4221 3.6167L60.1431 4.38338L60.787 4.87358L60.9836 4.79947ZM28.671 62.5577L28.3889 63.5609L27.8532 62.6375L27.1465 61.8281L26.9842 61.0785V60.8791L27.8133 61.4263L28.671 62.5577ZM113.906 97.1141L113.698 98.7072L113.849 99.1717L114.14 99.4967L114.274 99.8529L114.516 104.077L114.47 104.413L113.493 106.103L113.274 106.596L113.225 108.682L113.06 109.241L112.712 109.791L112.094 111.569L111.558 112.367L110.094 111.393L109.23 110.971L108.809 110.518L108.532 110.204L108.712 109.785L109.105 109.349L109.168 109.004L108.242 108.617L107.817 108.357L107.823 107.901L108.142 107.192L107.997 106.605L107.461 106.633L107.045 106.545L106.991 106.24L107.296 105.849L107.689 105.339L107.677 104.775L107.202 104.533L106.771 104.074L106.597 103.45L106.931 103.022L107.472 102.749L107.073 102.107L106.805 102.093L106.592 101.953L106.768 101.657L107.187 101.212L107.771 99.8814L108.584 99.2516L110.025 98.8469L110.416 98.6674L110.772 98.1971L111.168 97.8949L111.649 97.9349L112.094 98.1145L112.368 98.3082L112.573 98.1058L112.772 97.5216L112.65 97.0087L112.712 95.5978L112.969 94.797L113.385 94.7514L113.767 95.1931L113.75 95.5836L113.892 96.507L113.906 97.1141Z" fill="black"/>
</svg>
