<svg width="80" height="154" viewBox="0 0 80 154" fill="none" xmlns="http://www.w3.org/2000/svg">
<path d="M56.6212 144.88L55.9515 145.313L55.7407 145.823L55.5783 146.023L55.1366 146.154L54.6978 146.157L53.028 145.137L52.6434 145.182L53.0252 144.715L54.0624 144.333L54.6466 143.829L55.9943 144.316L56.6212 144.88ZM31.5803 110.766L31.9165 111.014L32.76 110.974L32.4807 111.526L31.5518 112.142L30.9278 112.749L30.1727 113.257L29.808 112.672L29.3834 112.695L28.7337 111.572L28.6169 109.891L29.4661 109.452L30.64 109.477L31.5803 110.766ZM14.1617 84.5112L15.2901 84.8618L16.1307 84.8561L16.8772 85.8736L17.2761 87.4753L18.2079 89.0542L19.4275 90.4222L19.4759 91.2572L19.04 91.7047L18.131 92.2605L18.1338 92.8561L18.7351 92.5569L19.2536 92.4201L20.5017 92.5512L20.9376 93.1554L21.2397 94.0588L21.3993 94.7998L21.291 95.6036L20.9548 95.347L20.6129 94.6288L20.2338 94.2982L19.7922 94.1186L19.9916 95.1076L19.9119 96.4271L20.1028 96.5497L20.6955 96.5725L20.3051 97.9177L19.493 98.2825L18.5499 98.4193L18.3219 98.8953L18.1509 99.5081L17.6579 100.42L17.0083 100.936L16.2048 100.83L15.4183 100.423L14.7315 100.34L14.2528 100.582L13.9423 100.808L13.6402 100.768L12.7769 100.853L11.9648 100.836L11.8479 100.48L11.9876 99.4083L11.8052 99.1175L11.0302 98.9694L10.7424 98.7128L10.295 97.9719L10.2067 97.6242L10.144 97.1454L9.67103 96.5269L9.09824 96.0824L8.76206 96.0595L8.09239 96.7834L7.5396 97.5159L7.73334 97.8835L7.91291 98.3652L7.61369 98.7128L6.70472 99.5052L6.56228 99.813L6.31723 99.9811L5.8841 99.7617L4.80417 99.813L4.30833 99.6733L3.72989 99.0891L2.31943 98.6987L2.0829 97.761L1.8122 97.5842L0.213743 95.974L0 95.4353L0.208003 95.1133L0.803491 94.626L2.80665 93.8166L3.12301 93.4916L3.18849 93.2038L2.59865 92.8761L2.06864 92.5112L1.88916 92.2747L1.8749 92.0666L2.17699 91.7959L2.781 91.7759L3.25979 91.8985L3.63876 91.6563L4.30546 91.4112L4.75286 91.1034L5.13756 90.3082L5.54496 89.5929L5.58774 89.2052L5.94392 87.8401L6.14054 87.5009L7.40569 86.606L7.72482 87.0962L8.34883 87.2159L8.90736 86.7656L9.57694 85.3435L10.0414 85.2551L10.5543 85.372L11.563 85.1924L13.3525 84.5284L14.1617 84.5112ZM24.3142 81.6043L23.3055 81.6157L22.9408 81.4931L22.5049 81.1511L22.0147 79.2131L22.1914 78.5263L22.3909 78.19L22.6132 77.9277L23.1459 77.8194L23.676 78.1871L23.8754 78.5291L24.32 79.8401L24.4026 80.963L24.3142 81.6043ZM16.1307 74.7814L16.4184 76.6082L16.7005 77.7368L16.7205 78.1216L16.4555 78.6574L15.1362 79.3699L14.7202 79.3727L14.7031 79.1989L14.9995 78.475L14.743 77.6513L14.8683 77.0243L14.7458 76.9103L14.4894 76.9987L13.5434 77.9933L13.2271 78.0902L13.1929 77.8879L13.4266 77.0728L13.455 76.5141L13.5947 76.1721L13.8511 75.8558L14.156 75.6192L14.4039 75.5851L14.6661 75.8301L15.4297 75.1462L16.1307 74.7814ZM17.4015 76.4344L17.2334 76.5854L16.8288 76.5426L16.6778 76.3118L16.5951 75.9584L16.5865 75.3114L16.8316 74.8469L17.8688 74.1458L17.3986 73.8978L17.3816 73.7212L17.6494 73.1369L18.7635 72.2277L19.0627 72.0625L19.3591 72.0881L18.7835 73.7012L17.4015 76.4344ZM18.9374 68.8562L15.7517 69.6571L14.6547 69.5858L14.5549 69.1925L14.7743 68.9303L15.6833 68.6766L16.0509 66.7472L14.6775 65.8551L14.6062 65.6072L14.7145 65.1825L14.8741 64.9915L15.7061 64.5413L16.0566 64.4415L16.3415 64.5013L16.9285 65.0229L17.5896 66.1145L18.4758 66.2883L19.077 66.75L18.9374 68.8562ZM12.301 65.3792L11.8479 65.4589L11.8138 65.2538L12.6031 64.2734L13.1131 64.1109L13.2927 64.2078L12.9222 64.7778L12.301 65.3792ZM5.82992 59.8359L5.12617 60.0354L4.86686 59.9185L4.82121 59.7333L4.98078 59.2289L5.5194 59.0493L5.90975 59.3229L5.97245 59.5709L5.82992 59.8359ZM14.931 59.8473L14.6945 60.0354L14.3954 59.9984L14.099 59.7561L13.7058 59.0664L14.5891 58.5876L14.9424 58.8698L15.0763 59.1919L15.0821 59.5481L14.931 59.8473ZM7.16629 57.6357L6.82724 57.7183L6.38558 57.6386L6.11201 57.4106L5.83566 56.5071L5.78436 55.9599L5.90688 54.9396L5.87836 53.7169L6.7902 53.6799L7.02672 53.8566L7.18342 57.479L7.16629 57.6357ZM16.0053 51.8787L15.9939 52.5342L15.8514 53.3066L16.0337 54.1245L16.0765 54.7087L16.4128 54.894L16.6179 55.1619L18.1167 55.4611L19.5101 55.3756L19.778 55.6151L19.8093 55.997L19.5899 56.4159L18.7949 57.1797L17.8489 58.4138L17.5668 58.6703L17.2618 58.6817L17.0425 58.5705L16.8858 56.376L15.86 56.6582L15.0336 56.6268L14.5806 56.3589L14.2643 55.843L13.6232 54.5149L11.7596 53.9906L11.2324 53.2553L11.0729 52.8106L11.1384 52.5655L11.5259 52.0183L12.0104 52.2122L12.3096 52.0924L12.4919 51.8473L12.4891 51.645L12.2355 51.1691L12.2241 51.0209L14.1303 50.4166L14.2985 49.4704L14.7116 49.3935L15.1847 49.7041L15.8315 50.6874L16.0053 51.8787ZM7.51969 49.2282L8.42292 50.0661L7.70491 51.4569L6.60211 51.4512L5.04921 50.4366L5.04347 50.2285L5.17174 49.9236L5.40539 49.6814L5.64757 49.6243L6.03227 49.7896L6.56793 49.5218L6.99533 49.6073L7.51969 49.2282ZM15.5722 38.971L14.5549 41.6187L14.156 41.6842L13.8055 42.3454L12.7227 43.0722L13.6687 43.0865L13.9337 43.3287L13.9394 43.8502L13.76 44.1523L12.5375 45.355L11.697 45.811L10.7908 47.0651L10.3321 47.0793L9.87903 47.8744L9.50859 48.225H9.29772L9.05832 48.0483L8.49701 47.2702L9.51711 46.5035L9.61111 46.0732L10.3093 45.6229L10.2494 45.4832L9.14102 44.8506L8.70501 44.426L8.74493 44.2037L9.2778 43.7135L9.02702 43.6507L8.85606 43.3856L8.54831 43.2831L8.45431 43.038L8.39727 42.3881L8.47988 41.7241L8.80188 41.4305L8.93302 41.1171L9.06406 41.0202L9.56268 41.1883L10.0699 41.7213L10.6626 41.516L11.3493 41.6158L11.3636 41.4932L10.8592 40.1851L10.9504 39.9172L11.2239 39.6122L12.8082 38.6746L14.7829 37.0957L15.2616 36.8477L15.4069 37.0644L15.6063 37.8823L15.5722 38.971ZM40.274 36.6483L40.3423 37.8965L40.2483 38.2756L40.0574 38.743L39.4533 39.6122L37.8633 40.852L34.9541 43.6906L33.233 45.0928L32.9965 45.7655L32.8683 46.7002L33.8969 46.8854L34.2959 47.2019L34.0508 47.6749L32.5264 49.3194L32.079 50.8014L33.2472 50.7472L34.2104 50.4622L36.128 49.5388L37.9318 48.852L38.7979 48.8235L40.482 49.3707L40.8638 49.3878L41.579 49.1341L42.3028 49.0885L47.1981 49.2595L48.5601 48.9375L49.4606 49.3222L50.2128 50.2798L50.928 52.044L50.9052 52.3376L50.4721 53.1384L49.6742 54.1416L48.9875 55.521L48.7881 56.262L48.6542 57.0743L48.4376 57.8238L47.0727 61.3294L45.7421 63.2616L45.1494 64.6296L44.4171 65.7155L43.7104 66.3995L42.9581 66.8555L40.7812 67.34L40.1714 67.6877L39.4447 68.2833L38.6812 68.5797L39.5759 68.5427L40.4621 68.2121L42.0776 68.0924L43.9355 69.2324L43.7617 70.1643L43.0151 70.8996L41.3169 71.0165L39.7297 72.6495L39.0145 73.1511L38.2565 73.3991L37.3105 73.325L35.5923 72.889L34.8401 72.433L35.5182 73.1768L36.2904 73.5644L40.7612 74.4792L41.0319 74.3824L42.4566 73.419L44.3572 73.4048L47.9731 75.1775L49.0132 76.5313L50.5063 78.4607L51.3184 79.2131L51.9054 79.8942L52.2672 80.9117L52.9682 84.2634L53.7689 87.5181L54.8146 91.0235L55.2905 91.9925L55.9145 92.6708L59.0717 94.227L59.7755 94.7428L61.0007 96.2362L62.1833 97.8237L63.2831 99.0406L64.4714 100.024L63.8958 100.534L63.5026 101.335L63.7989 102.421L64.2804 103.455L65.2293 105.108L66.0671 106.907L65.7593 106.636L65.4345 106.488L64.9899 106.533L64.5569 106.448L63.7562 105.884L62.9869 105.191L61.4567 105.47L60.6075 105.345L59.8695 105.365L61.2686 105.764L62.7988 105.792L66.1725 108.805L67.3122 110.583L67.9904 112.923L67.5289 113.972L66.8108 114.65L66.1412 115.422L65.5114 116.297L67.3835 117.577L67.7882 117.54L68.2013 117.36L68.6003 116.924L69.2698 115.861L69.6146 115.485L70.78 115.348L71.7574 115.431L72.729 115.668L73.5868 115.593L75.3106 116.049L76.1968 116.46L78.3937 118.304L78.8696 119.313L79.089 120.612L79.1146 122.049L78.7443 123.357L78.3196 124.537L78.0575 126.056L77.8723 126.603L77.613 127.031L76.4504 128.225L75.6782 128.715L75.3534 128.501L75.0029 128.53L74.9658 128.818L75.3334 129.425L75.3363 130.157L74.6496 130.699L73.9515 130.929L72.7832 130.641L71.1619 131.65L72.3273 132.169L72.5638 132.719L72.2731 133.685L71.5408 134.116L70.7259 134.307L69.8938 134.352L69.2043 134.589L68.5432 135.045L69.3724 134.805L69.948 135.016L70.3099 135.826L70.6376 136.059L72.2617 136.404L73.2648 136.401L75.2024 136.205L76.1341 136.208L76.4646 136.356L76.4704 137.026L76.3279 138.667L76.0714 139.006L73.5041 140.38L72.9769 141.338L72.8316 141.916L71.33 141.814L70.6262 142.426L69.4095 142.834L68.4691 143.264L67.5488 143.809L66.7908 143.971L63.5225 143.324L61.5479 143.378L58.8723 143.943L58.1827 143.848L57.1512 143.31L56.0912 142.945L54.8745 142.785L53.8231 142.284L54.4784 143.244L53.0224 144.171L52.3499 144.353L51.6517 144.324L50.227 144.575L48.902 144.438L49.1015 145.094L49.4548 145.667L49.1671 145.915L48.865 145.977L46.3518 145.547L45.9956 145.627L45.685 146.026L44.7704 145.812L43.8813 145.142L42.9382 144.689L41.9466 144.475L41.1602 144.55L37.9203 145.61L37.2735 146.67L36.9487 148.172L36.4814 149.503L35.7177 150.526L34.8087 150.66L33.9539 149.95L32.3297 149.169L31.777 148.639L31.6003 148.608L31.4179 148.796L30.7796 149.035L30.1214 149.047L29.1041 149.258L27.3346 149.893L26.6195 150.324L25.0836 151.512L24.7701 151.84L24.2117 153.034L23.3597 153.245L22.579 152.481L21.6899 152.213L20.7524 152.473L20.1854 152.88L19.9204 152.55L19.9119 151.871L20.5957 151.062L22.4222 150.449L24.0265 148.856L24.8129 147.884L25.1263 147.334L25.511 146.983L26.0125 146.852L26.2718 146.245L28.4973 143.8L28.6796 143.239L28.7907 142.23L28.9731 141.258L30.7853 140.628L31.6516 138.579L31.8909 138.416L34.4184 138.04L36.2933 138.071L38.1568 138.473L39.1113 138.51L40.0688 138.371L40.821 137.815L42.1062 135.809L42.8299 134.922L43.6591 134.121L44.4341 133.207L45.6908 131.508L44.8416 132.095L43.8158 133.024L43.2203 133.563L41.3282 134.104L40.5133 134.657L39.0858 135.903L38.8122 136.005L36.658 135.706L35.0567 134.09L34.0337 133.429L33.6119 133.352L33.1732 133.549L32.2385 133.751L31.2869 133.717L31.7741 132.967L32.4351 132.548L30.9535 132.257L30.5402 132.029L30.0701 131.502L28.9075 131.414L28.3547 131.548L27.4201 132.243L25.9442 132.981L24.1633 131.958L23.8156 131.511L23.8241 130.641L23.5563 129.952L23.0633 129.71L23.6931 128.812L24.4568 128.213L26.1322 127.618L28.6711 126.201L30.0958 125.597L31.4179 124.554L31.965 123.916L32.3611 123.041L32.7543 121.969L33.3156 121.094L32.7714 120.886L32.5264 120.228L32.5918 119.558L32.8426 118.962L32.6175 118.215L32.2157 117.435L32.2385 116.825L32.3468 116.172L31.3267 116.206L30.3095 116.411L29.3862 116.873L28.4915 117.5L27.6965 117.617L27.7079 117.115L28.0527 116.494L28.9532 115.605L29.9162 114.867L30.2582 114.305L30.5289 113.653L31.0076 113.128L32.2671 112.136L34.6805 111.019L35.0395 110.954L35.9855 111.085L36.9173 110.914L37.7323 110.512L38.5444 110.426L40.3737 111.586L39.8294 109.791L40.6358 109.361L41.8041 110.985L42.2372 111.156L43.1547 110.919L42.8014 110.646L42.3883 110.629L41.8469 110.384L41.3909 109.862L40.633 108.203L40.6757 107.217L41.1858 106.191L41.75 105.245L41.2769 105.057L40.898 104.695L40.7897 103.746L40.9379 102.905L41.9523 102.164L42.2515 101.036L42.3769 99.7902L42.2087 99.2173L41.2 99.3085L40.7099 99.5422L40.2711 99.9099L39.8209 99.8871L38.5757 98.5077L37.8662 97.4617L36.5925 95.2444L36.4129 93.9135L37.4302 91.0349L39.0031 89.1853L40.8553 88.5384L40.4962 88.4158L37.6724 88.3902L36.7407 88.6181L35.8773 89.3762L35.39 89.6099L34.8771 89.6954L34.4098 90.0717L33.9539 90.5932L33.478 90.9295L32.5349 90.8411L32.079 90.9523L31.7513 90.6502L31.4749 90.1514L31.1158 90.0175L30.7141 90.1714L29.8649 90.844L29.0044 91.2402L27.9644 90.8155L26.5995 90.0232L26.3317 90.3139L26.0296 91.0492L25.8558 92.192L24.887 91.1974L24.0635 89.8665L23.7842 89.0286L23.7643 88.0824L24.2117 87.7147L24.6989 88.051L25.4227 85.8023L26.8645 82.8611L27.3745 81.9976L27.7307 80.8661L27.6709 80.1252L27.3546 79.4982L26.0125 78.0732L26.0296 76.9074L26.1721 75.5908L26.5368 74.7984L26.6907 74.6474L28.4716 74.6674L27.7763 74.2569L26.3915 73.0628L26.4171 72.6382L26.742 71.5295L26.591 71.6406L26.2946 72.1536L25.7276 73.3934L25.3828 73.6812L24.4026 73.9748L24.2231 74.5819L24.0663 74.7415L23.5791 74.8098L23.428 75.377L23.3198 75.4141L23.1802 74.8042L23.1659 73.7895L23.3597 72.8547L23.7301 72.1223L25.1662 70.4551L24.4681 70.9709L22.8839 72.5127L22.0746 73.5245L21.858 73.8665L21.7925 74.1544L21.7953 74.485L22.1572 76.2548L22.0518 77.0728L20.6869 82.4451L20.4276 82.9808L20.1911 83.2601L19.966 83.3257L19.2935 83.2231L18.9943 82.8212L18.9972 82.3681L19.1226 81.6869L19.6896 79.1419L19.9347 78.4322L20.2994 77.771L21.103 76.6139L21.083 76.537L20.5473 76.765L20.3194 76.6909L20.1541 76.46L20.2595 73.0087L20.6955 71.8687L20.8579 70.2071L21.234 68.7792L21.67 67.7361L22.0033 66.3995L22.502 65.8038L22.6359 64.8919L23.1973 63.9029L23.6304 62.8683L23.3967 62.9709L20.6243 65.6613L19.9175 66.1487L18.9545 66.0176L18.2193 65.7155L17.6437 65.0799L17.3872 63.8573L16.6778 63.8259L16.0708 63.615L16.0765 63.4497L16.8601 62.7828L18.1167 62.5548L19.2935 61.4832L18.2478 60.7593L18.3361 60.5285L19.248 59.91L20.4076 57.8323L20.6413 55.9143L20.0885 55.0109L19.8891 54.418L18.7807 53.7568L18.5954 52.9104L18.7236 52.4345L19.0855 51.9699L19.6298 51.6108L20.4846 51.2631L19.7095 50.8926L19.4189 50.4537L19.1995 49.8182L19.1795 49.4505L19.5814 47.8089L19.815 47.1305L20.2737 46.2642L22.3481 46.3126L22.5875 45.9307L22.824 45.9165L23.884 46.2671L23.7273 45.8908L21.9919 43.8245L21.8352 43.4313L22.3311 42.314L22.3652 41.8153L22.294 41.2823L22.4365 40.8748L22.9864 40.6838L24.6619 40.701L25.075 40.5129L24.887 39.9713L24.4966 39.2588L24.4197 38.6604L24.5108 38.1303L24.5308 37.0615L24.6077 36.5884L25.0067 35.8787L25.3343 35.6678L25.7418 35.5453L26.6622 35.7818L27.0127 36.0668L27.4173 36.7423L27.7136 36.6881L28.8591 35.9528L29.2039 35.8474L29.6741 36.6995L31.6316 36.0213L34.2616 35.7191L35.8431 35.2717L37.5071 35.1092L39.0601 34.5991L40.7071 34.8328L40.7641 35.1292L40.6786 35.5396L40.274 36.6483ZM41.7186 33.1798L41.6416 33.2254L41.3482 32.9432L40.8695 31.9315L41.6246 31.7291L41.9808 31.8545L41.8469 32.2849L41.7186 33.1798ZM39.8323 32.3704L39.3735 32.5756L38.9205 32.5613L38.2138 31.6693L37.9459 31.0195L37.9944 30.5891L38.2907 30.4438L38.9746 30.6547L39.328 31.3985L39.3735 31.8802L39.4561 32.0682L39.8807 32.2592L39.8323 32.3704ZM40.6928 28.7309L40.5846 29.1128L41.1915 29.1043L42.0719 29.4292L42.6048 29.4691L43.0493 29.8738L42.8043 30.6291L42.5392 30.8428L42.2401 30.8856L41.1915 30.1303L39.818 30.4438L39.5445 30.3469L39.365 30.1389L39.2909 29.8795V29.3494L39.2168 29.1927L38.7182 29.6943L38.5016 29.6344L38.3791 29.395L38.325 28.899L38.3791 28.1838L38.6725 27.1606L39.1655 26.9554L39.9007 27.0751L40.7441 27.6536L40.9977 28.0099L40.992 28.2949L40.6928 28.7309ZM44.759 25.5902L43.8557 25.6073L44.323 24.6839L44.8673 24.4502L45.8959 24.5528L45.7135 24.9689L44.759 25.5902ZM43.3171 26.2856L42.6304 26.6733L42.337 26.3541L42.26 25.3508L41.4422 24.9204L41.0433 24.6526L40.7355 24.1453L40.8125 23.9885L41.3454 23.7805L42.2571 24.701L42.6304 25.442L43.3058 25.6615L43.3912 25.7755L43.3171 26.2856ZM54.6807 4.80226L54.8459 5.94511L55.2592 5.6487L55.8832 6.74311H56.2023L56.7266 6.30993L56.6212 7.32737L56.0769 10.1403L55.9231 10.6163L55.8205 11.4684L55.7122 11.6366L55.5527 13.3552L55.1851 13.9194L54.8773 15.2647L54.7519 15.3957L54.3018 14.8799L54.7519 12.825L54.9372 11.628L54.8175 11.0067L54.5639 10.4453L53.8743 10.4282L53.2931 10.6875L53.1705 10.3569L53.1534 9.91232L53.0138 9.76411L52.2416 9.79547L52.0136 9.67292L51.8626 9.26253L51.8342 8.93476L52.5323 8.67827L53.1876 8.77516L54.145 8.12254L53.5466 5.93085L52.7517 5.7228L52.5693 5.50906L52.7231 5.13572L53.1591 4.93337L53.8287 3.8133L54.2305 3.63661L54.7292 3.66797L54.6807 4.80226ZM56.8064 5.18699L56.6041 5.37225L55.8234 3.72211L56.4018 1.82687L57.1028 1.88671L57.2139 2.3826L57.1455 2.84144L56.7893 2.88136L56.758 3.021L56.8691 3.90167L56.8748 4.92198L56.8064 5.18699ZM58.9491 0.324896V0.512981L58.5331 1.89241L58.5389 2.41965L57.8692 2.36834L57.7638 2.20022L57.6384 1.41074L57.7239 0.569993L57.8179 0.350554L58.0117 0.262187L58.2225 0.427484L58.5559 0L58.7297 0.00856707L58.9491 0.324896Z" fill="black"/>
</svg>
