<svg width="69" height="70" viewBox="0 0 69 70" fill="none" xmlns="http://www.w3.org/2000/svg">
<path d="M53.3757 0.32494L54.0908 0.541508L54.5068 0.892106L54.7661 1.21409L55.1621 1.49058L55.4585 1.55329L55.6865 2.50237L55.8061 3.67653L55.6267 4.18386L55.0995 4.30067L53.4525 5.40647L53.4127 6.41826L53.4355 6.90558L53.4696 7.25331L53.6435 7.54398V7.96294L53.4611 8.41321L52.743 9.16564L52.2443 9.76133L51.6859 10.5707L51.3725 10.6705L51.1245 10.8129L50.8994 10.3683L49.6599 9.57886L46.7905 9.11719L45.4201 8.53298L44.8188 8.64126L43.6532 7.9886L42.8555 8.2764L41.1629 9.43639L40.2483 9.31097L39.2709 8.61273L38.6354 8.48453L37.889 8.85218L36.695 10.1859L35.4783 10.8386L34.3898 10.585L32.9252 10.5906L32.7685 11.3345L33.0506 11.8504L33.8512 12.7281L33.4752 13.3865L33.7543 14.0449L34.2759 14.1788L35.0651 14.1418L36.5211 14.9939L37.1594 15.8917L37.5669 16.8721L36.6778 16.1681L36.0881 15.4898L35.2646 15.2447L34.122 14.6661L33.4039 14.5692L32.6402 14.9712L32.5804 15.4243L33.4039 16.2707L34.1562 16.7922L34.555 17.2141L34.8201 18.1518L34.6691 18.4681L34.3898 18.7645L33.4979 18.1745L32.1331 16.0741L30.2295 15.6551L29.9104 16.094L30.2866 17.2055L30.5574 17.6359L32.2129 18.8329L32.0817 19.0866L31.8395 19.1948L29.9874 18.5108L29.4488 17.4706L29.3207 16.151L27.6111 15.2333L25.9982 14.233L25.6362 13.2839L25.9696 12.9305L26.2062 12.2322L25.3201 12.3605L24.7644 12.8022L23.8668 13.2297L23.8298 13.9308L23.9722 14.5806L23.6759 15.5241L23.3853 17.1628L23.5677 18.0206L25.5166 20.4745L26.1834 22.2529L26.6622 22.9255L27.6594 23.6665L28.6994 25.0431L29.1382 25.7584L29.4518 26.9297L28.577 27.6536L28.0697 27.6822L27.7876 27.363L28.1808 26.565L28.1239 26.0776L26.7733 25.3223L26.2034 25.576L25.5451 26.0662L25.9213 26.9782L26.343 27.5795L26.5566 28.4061L27.366 28.3348L26.2775 29.261L25.2545 29.7342L24.2486 29.7626L23.6075 29.8481L23.3853 30.0847L23.9067 30.2557L24.3314 30.2728L25.0237 30.7715L26.9926 31.3672L27.933 32.1224L28.8561 32.1909L29.7822 33.5731L31.3864 33.9407L32.3012 35.3344L33.515 35.6081L34.5635 36.121L34.8686 36.6084L35.0223 37.4919L35.0908 39.3586L35.3187 40.7438L35.3272 41.1798L35.2703 41.8324L34.9853 42.1516L34.6006 42.163L33.8456 41.1456L32.6915 40.074L31.472 38.7972L31.1243 38.572L30.8395 38.5521L30.1869 38.9824L28.3746 39.3159L27.5255 39.7833L27.2064 39.8858L27.118 40.1309L27.517 40.3847L28.0043 40.9689V41.764L28.4088 42.7302L28.9302 42.9782L29.6085 42.9582L29.9988 43.1378L30.0986 43.5225L30.4946 43.9699L30.7539 44.3034L30.7454 44.54L28.8506 45.1698L28.4544 45.4577L28.121 45.6059L27.6281 45.3066L27.5996 44.5371L26.9498 44.1238L26.3543 43.7676L25.6392 43.6166L25.0322 43.0836L24.6362 43.5139L24.9524 45.0073L25.6392 46.0334L26.7904 48.7807L27.3118 50.3967L27.4171 51.1776L27.1578 52.4744L27.725 53.4348L28.1125 54.4209L27.6879 54.3839L27.3175 54.0361L26.6963 53.6258L25.4938 52.0497L25.075 51.0664L24.5734 50.9895L23.7016 51.132L22.7498 53.2325L22.7527 54.4323L22.2597 54.1473L21.8381 53.774L21.8892 52.4601L21.8466 51.9072L20.6897 50.1117L20.1596 49.9093L19.9118 49.3023L19.4843 48.6525L18.9344 48.7751L18.4843 49.0372L18.3617 50.0177L18.3161 50.8954L17.9799 51.5539L16.746 50.3026L15.5037 48.1309L15.4724 46.9396L16.3813 45.8481L16.2731 45.0672L15.4126 43.5225L14.1701 42.5278L13.475 42.2314L13.1472 41.1713L12.4833 40.624L11.9447 40.3675L11.8393 39.9913L12.0018 39.7121L13.3068 38.6204L14.0705 36.9048L14.4495 36.825L15.2302 37.2325L16.1077 37.1271L16.8258 36.121L17.4356 35.5738L18.4643 35.6451L20.7866 36.9874L23.2826 37.7541L24.5279 38.4238L25.2345 39.0878L25.6079 39.2247L26.2004 39.3188L26.1749 38.8228L25.9869 38.384L26.4797 38.1445L27.8161 38.1559L28.0584 37.9222L28.3062 37.546L28.0299 37.1157L27.5881 36.9105L27.1152 36.8535L26.8046 36.7166L26.3003 36.8535L25.5166 36.52L25.1091 36.2465L24.8728 35.9643L23.5079 35.4028L22.2141 34.4509L21.9207 34.9896L21.3964 35.2802L20.6527 35.323L18.5612 34.7188L17.2761 35.1805L16.5751 35.3002L16.0394 35.3116L15.3811 35.5168L14.6204 35.6394L13.9621 34.7616L13.6858 34.0804L13.492 33.9521L13.4835 34.5934L13.2726 35.1064L12.3066 35.3943L11.751 34.9952L11.3237 33.7897L10.785 32.2536L9.83616 31.011L9.06398 30.686L8.99841 30.0021L9.06676 29.4548L9.99286 29.3181L11.4404 29.8909L11.7397 29.7769L12.0644 29.5119L12.0018 28.9276L11.791 28.4061L11.392 28.3833L11.1157 28.4431L10.2236 28.3348L9.08102 28.6255L8.5511 28.3519L8.3744 28.0184L7.41699 27.1948L6.59072 26.0889L5.25139 25.3509L4.37659 23.0936L3.64145 22.1076L2.85796 21.4007L3.02892 21.3893L3.32527 21.509L3.89519 21.8967L4.4992 21.9793L4.82964 21.7228L5.0206 21.4862L5.14322 21.0987L5.19452 20.6455L5.29417 20.4944L5.7587 20.5485L5.90688 20.4346L5.90114 20.027L5.60201 19.5197L5.33974 18.8956V18.5992L5.55922 18.4795L5.92114 18.2087L6.11488 17.8724L6.49941 17.7043L7.06655 17.673L7.69908 17.5247L8.10935 17.1628L8.16935 16.8065L8.4257 15.8204L8.59388 15.3359L8.86449 14.8942L9.00989 14.2985L9.3005 13.7371L9.90451 13.5005L10.4517 13.2241L10.8649 12.5002L11.0984 11.8817V11.5027L10.7508 10.8813L10.4944 10.2772L10.5628 9.49058L11.6484 9.425L12.0273 9.35089L13.438 9.3081L14.0818 8.88636L14.5263 8.92628L15.4552 9.29105L15.8712 9.00317L17.0852 8.43322L18.2848 6.77451L18.7947 6.52654L19.9602 6.42391L20.325 6.233L20.7496 6.27005L22.0546 6.6063L22.7955 6.65761L23.6759 6.42678L24.6448 6.02209L24.8868 4.59995L25.1178 4.39469L25.719 4.33772L26.1749 4.34912L27.0524 4.46314L28.0954 4.50019L28.765 3.83326L29.8222 3.78482L30.3123 3.68793L31.1301 3.82187L31.925 3.81622L32.9423 3.53685L33.8912 3.07806L34.632 3.11789L34.934 3.03527L35.1049 2.93837L35.2901 2.31989L36.6836 2.28006L37.1566 2.3399L37.9345 2.35694L38.7438 2.01783L38.9859 2.04636L39.3933 2.95264L39.6071 3.21487L40.0459 3.4571L41.0261 4.13542L41.2028 3.95581L41.6132 3.72785L42.7871 4.03844L43.907 4.56003L44.8472 5.32672L45.8929 5.10441L47.0528 4.72815L47.8077 4.61987L48.6285 4.56577L49.1158 4.4033L50.2241 4.59995L51.3668 4.18665L51.9167 3.81622L52.0763 3.29176L51.985 2.37121L51.7257 1.44779L51.4522 1.1058L51.364 0.752424L51.5207 0.42183L51.6972 0.193781L52.4438 0L53.3757 0.32494ZM41.0062 11.9843L39.9803 12.3576L38.9375 11.648L38.946 11.2262L39.496 10.3683L39.798 10.1147L40.5645 10.1831L41.0005 10.773L41.1031 11.0524L40.9607 11.5255L41.0062 11.9843ZM48.2978 13.9622L47.3917 14.2358L46.3945 13.3723L47.3576 13.0246L47.805 13.2754L48.1241 13.5717L48.2978 13.9622ZM46.3119 18.5849L46.0098 18.9355L45.7848 19.5397L45.6651 20.4032L45.1978 20.4232L44.9157 20.2493L44.8216 19.9216L44.8046 19.5083L44.5993 19.5254L44.4341 19.9728L44.2887 20.1752L43.8186 20.2179L43.3028 19.9415L43.3285 19.3458L43.2259 18.6533L43.2715 18.411L44.682 18.3512L45.0952 18.8614L45.5938 18.565L45.799 18.2458L46.403 18.0463L46.3119 18.5849ZM3.45067 24.2878L3.62441 24.8663L2.62717 24.5072L1.90055 23.9914L1.29933 22.7117L0.0198264 21.2554L0 20.8308L0.487138 20.5087L1.53863 20.2806L1.96316 20.5172L2.23673 20.7623L2.3223 21.0416L1.72664 21.6002L1.6042 21.8539L2.06299 22.3554L2.05725 22.5578L2.24821 23.5297L2.47326 23.8945L3.0517 24.188L3.45067 24.2878ZM54.088 25.3509L53.9484 25.9607L55.0539 26.9725L55.4301 27.6137L55.5696 28.2351L55.4757 28.4146L55.0567 28.0783L54.712 27.97L54.8289 28.4146L55.1821 28.7965L54.5553 29.0159L53.9284 29.0045L52.0934 28.4716L51.6716 27.9045L52.7687 27.0523L52.991 26.7074L52.2158 26.7416L51.3868 27.7534L50.0589 27.3088L49.6514 26.9012L49.5601 26.6818L50.0845 25.7812L51.0191 25.8125L51.5122 25.6102L52.1247 25.3252L52.1304 24.8976L53.5892 24.8008L54.088 25.3509ZM33.9197 27.1121L33.5463 27.2318L33.9197 26.411L34.5807 25.9864L34.3327 26.6761L33.9197 27.1121ZM33.0534 27.5625L32.6972 27.9101L32.1444 27.7591L31.5661 26.5963L33.0534 27.5625ZM30.1414 29.1585L30.5944 30.2699L31.0189 30.6433L31.908 31.0851L32.3268 31.142L33.8456 31.94L35.6093 32.0996L35.8373 32.3305L36.0538 32.9433L36.4129 33.4249L36.5041 33.7983L36.3161 34.2144L36.5754 35.4826L37.0199 36.6853L37.6895 37.2668L38.5243 37.4434L39.3193 37.4177L39.5187 37.6572L39.4391 38.7059L39.1027 39.1164L38.8292 39.2161L38.5926 39.1079L38.3761 38.8628L38.1425 38.7459L37.6865 38.7259L37.3531 38.3041L36.5069 37.7256L36.3502 37.3779L36.3216 36.8449L35.9627 36.4516L35.6321 35.7049L35.3187 35.4969L35.1449 35.1206L35.1307 34.961L33.8997 34.8499L32.8825 34.8471L32.0191 34.4224L31.7511 33.3081L31.2383 33.0088L30.8537 32.6925L30.5346 32.2536L29.7252 31.447L28.8306 30.7715L27.9643 30.3241L27.0469 30.0306L26.3003 30.3754L25.8643 30.2956L25.7759 30.0619L26.7048 29.5974L27.9813 28.7081L28.8789 28.4146L29.3149 28.3775L30.1414 29.1585ZM40.2113 30.6889L39.3678 30.9369L39.1427 30.8969L39.3307 30.5835L39.345 30.4523L38.5015 29.8766L38.6013 29.13L38.701 28.939L39.328 29.3295L39.4646 29.9793L40.2113 30.6889ZM8.32031 32.7352L8.0097 32.815L7.74187 32.7608L7.4996 32.8065L7.26308 33.0003L7.28882 32.1937L7.56517 31.1876L7.90135 30.6005L8.37736 30.3269L8.57962 30.7887L8.54258 32.4302L8.32031 32.7352ZM51.5605 36.7052L50.7968 37.2782L49.9448 36.4488L49.8053 36.1809L50.4321 35.8445L50.7427 35.3287L50.492 34.6932L49.6229 33.7527L49.5801 33.0858L50.9109 32.8036L51.6944 33.3851L52.0934 33.4249L51.9395 33.9807L52.0078 34.1602L52.0676 35.8418L51.6972 36.0782L51.6374 36.54L51.5605 36.7052ZM8.89302 35.5767L8.49701 35.6878L7.99544 34.7159L7.81317 34.0434L8.02396 34.0063L8.22344 34.0833L8.43423 34.3369V34.5963L8.51979 34.8755L8.7391 35.209L8.89302 35.5767ZM7.72482 35.0295L7.82448 36.2037L8.38866 36.4231L9.13806 37.4776L9.07545 38.0163L8.91858 38.2015L7.6763 37.7028L7.37995 37.9279L7.01803 37.8367L6.79298 37.2525L6.81855 37.0472L6.61628 36.6967L6.44532 36.54L5.95818 37.0045L5.65035 37.09V36.6654L6.1034 35.4969L6.31436 35.3002L6.68463 35.6849L6.98968 35.5425L7.22047 34.9097L7.23473 34.2799L7.34012 34.0947L7.72482 35.0295ZM31.224 39.6635L30.9078 39.9115L30.5516 39.9001L30.2981 39.809L30.1727 39.6094L30.3294 39.5154L30.5146 39.1135L30.6855 39.0052L30.9391 39.0565L31.0958 39.219L31.224 39.6635ZM42.7444 41.3394L42.5078 42.0148L41.8838 41.2282L41.2 40.6896L40.9435 40.2164L40.5274 39.9315L40.4135 39.2959L40.9179 39.0366L41.1344 39.011L41.653 39.7833L42.4623 39.8717L42.3995 40.3476L42.656 40.9603L42.7444 41.3394ZM9.93303 40.8805L10.7765 41.861L10.0955 41.6187L9.37181 42.297L8.45423 41.5047L7.9043 40.701L7.78169 40.3789L8.35735 39.6265L8.89302 40.3989L9.54277 40.5215L9.93303 40.8805ZM57.4018 40.8179L58.385 41.1513L58.6585 41.1142L59.1229 41.234L59.2455 41.8438L58.63 41.9322L57.5643 42.4936L57.1112 42.3711L56.5698 41.8838L55.7093 41.8324L55.4557 41.6985L55.9173 41.1228L56.755 40.8321L57.4018 40.8179ZM37.661 43.1776L37.1253 43.665L37.034 42.9325L37.3789 42.1602L37.849 42.1117L38.0229 42.4509L37.661 43.1776ZM44.8587 42.9496L44.5623 43.5994L44.0637 43.4997L43.2287 42.8014L42.9438 42.4851L42.7871 42.1744L43.1291 42.1374L43.5478 42.468L44.6164 42.6418L44.8587 42.9496ZM51.0419 43.6564L50.6687 43.6963L50.7826 43.2945L51.4979 42.5963L52.5009 42.5621L53.4127 42.2115L53.6178 42.2001L53.1819 42.7501L52.4466 43.2631L51.0419 43.6564ZM46.0326 44.7622L45.2661 44.8249L45.3117 44.0583L45.5966 43.8588L46.5142 44.2407L46.4686 44.4801L46.0326 44.7622ZM42.3569 44.0155L42.3169 45.0558L42.1061 45.0472L41.9835 44.8876L41.9779 44.4887L42.069 43.8617L42.3569 44.0155ZM38.2992 45.5118L37.8432 45.8168L37.9944 45.1213L37.7691 44.7594L37.9686 44.4516L38.2622 44.2037L38.3989 44.4601L38.6612 44.8762L38.2992 45.5118ZM39.0001 47.7063L38.7038 47.8573L38.2109 47.6379L38.342 47.0907L38.6839 46.857L39.0459 47.0365L39.0999 47.2845L39.0001 47.7063ZM47.178 49.2795L46.4656 49.6557L45.9785 49.1113L45.7077 48.2535L47.0128 46.9938L47.3262 47.1078L47.5143 47.4327L47.4858 48.5642L47.178 49.2795ZM45.0439 48.2735L44.4084 49.043L43.8785 48.9603L43.6562 48.6069L43.9839 47.883L44.6934 47.4726L45.0153 47.5809L44.984 48.1167L45.0439 48.2735ZM58.9634 49.3622L58.1655 49.499L58.3079 48.7066L57.9176 48.0825L58.5387 48.4331L58.9349 48.8548L59.1286 48.9347L59.0831 49.1883L58.9634 49.3622ZM40.5817 49.7383L40.4363 49.7811L40.2255 49.3622L40.1827 48.9717L40.2654 48.7409L40.5417 48.718L40.9179 49.4619L40.5817 49.7383ZM49.6827 51.0408L48.9761 51.1235L48.7509 51.0494L49.1812 50.8784L49.4805 50.6959L49.6257 50.4765L50.341 50.0889L50.8111 49.5816L51.3212 49.9265L50.6829 50.1573L49.6827 51.0408ZM58.402 51.6707L58.1542 51.6821L58.4505 51.2033L59.2938 50.5449L60.522 49.9635L60.9295 49.9008L61.6219 50.2599L60.3511 50.8555L60.0119 51.1691L59.0745 51.2374L58.402 51.6707ZM45.8644 52.1979L45.7249 52.3546L45.1207 51.7276L44.89 51.3629L45.1778 51.0579L46.0668 51.7704L45.8644 52.1979ZM39.0999 51.3059L39.1142 51.8901L39.0572 52.0981L37.4217 52.3803L37.5726 51.7106L37.6723 51.4997L38.2137 51.8103L38.4132 51.6507L38.493 51.4684L39.0999 51.3059ZM65.6853 53.3892L65.5113 53.5459L65.1096 53.0928L65.0896 52.8563L65.5 52.5856L65.7051 52.5228L65.7649 52.7081L65.7593 53.1042L65.6853 53.3892ZM54.4925 53.0785L53.86 53.3151L53.4583 53.8139L52.9682 53.4604V52.9816L53.5038 53.1298L53.88 52.8591L53.7659 52.5542L54.1764 52.6967L54.4925 53.0785ZM46.6709 54.9881L46.3004 55.5097L45.7762 55.3244L45.9898 55.1278L46.1152 54.8713L46.1295 54.5007L45.987 54.2727L46.0839 54.1901L46.5512 54.572L46.6709 54.9881ZM65.5456 59.5566L64.9699 59.7647L64.7705 59.739L64.5311 59.283L64.8645 58.1829L64.5567 57.4733L64.5369 57.174L65.0042 56.7579L65.3291 56.1338L66.1211 55.4583L68.1756 54.6575L68.6571 54.5834L68.6429 55.2104L67.9562 56.795L67.3463 57.5872L67.5088 58.22L66.5315 58.3967L65.5456 59.5566ZM27.2491 56.9916L27.1551 57.4191L26.3316 57.1256L26.1036 56.6838L26.061 55.7034L26.2775 55.2246L26.4199 55.0736L26.7989 55.6265L27.5938 56.433L27.2491 56.9916ZM60.2142 64.1081L59.9093 64.6582L59.5987 64.1936L59.7326 63.6578L59.3737 62.8113L60.0547 61.5517L60.069 60.9389L60.5904 60.6254L60.4622 61.6656L60.0632 62.4979L60.4765 63.1904L60.673 63.977L60.2142 64.1081ZM33.6346 63.4213L34.1818 63.4925L34.9227 63.4811L35.0908 63.4213L35.5637 62.8484L36.1451 62.837L36.3987 63.4013L35.8088 63.6606L35.6891 63.8089L35.8032 63.9285L36.2448 64.1651L36.8603 64.0767L36.8773 64.5214L37.0142 64.8833L37.3161 65.0999L37.6467 65.1426L38.3733 65.0799L39.0885 64.9374L39.8266 64.6524L40.5817 64.5071L42.8355 64.6524L43.6447 65.268L45.1863 65.3421L46.6168 65.6671L47.369 65.4533L48.654 65.2538L48.8592 65.4704L48.694 66.8584L48.7738 67.2631L49.1441 67.4569L49.509 67.3628L49.9591 66.9068L51.0361 66.5562H52.1532L53.0964 65.6328L53.3727 65.5787L53.199 66.0319L53.0565 67.0977L52.857 67.7219L52.7657 68.2122L52.1362 68.4658L51.1873 68.5085L49.4519 68.4002L47.7024 68.5741L44.4626 69.0415L41.217 69.2809L40.781 69.1241L40.7725 68.5057L40.7041 68.0781L40.4934 67.7789L39.4902 67.5224L38.5328 67.0835L34.7802 66.485L33.8939 66.2484L32.4579 66.371L31.9308 66.3539L31.5689 66.1401L31.3181 65.7696L31.2042 64.5926L31.3836 63.4269L31.6943 63.1191L31.8367 63.4697L32.2044 63.6321L32.5463 63.2787L32.5433 62.743L32.7172 62.247L32.9878 62.4551L33.1673 63.2189L33.6346 63.4213Z" fill="black"/>
</svg>
