<svg width="95" height="112" viewBox="0 0 95 112" fill="none" xmlns="http://www.w3.org/2000/svg">
<path d="M56.5471 6.50654L56.3847 7.1706L56.0455 7.33594L55.453 7.7235L54.7747 8.25361L54.1422 8.84922L53.9712 9.49623L54.145 9.91797L54.3159 10.0634L54.5467 9.93511L54.8831 10.015L55.3048 10.2458L56.0085 10.4709L56.0285 10.6932L55.8803 10.9782L55.3332 11.4827L54.8403 12.0527L54.7918 12.4003L54.8518 12.654L55.0227 12.8079L55.7521 12.7395L55.8603 12.9476L55.5041 14.4096L55.6153 14.6576L56.2565 14.8913L56.7238 15.2418L57.5986 16.1652L57.9463 16.9119L57.7068 17.1628L57.1569 17.2853L56.7095 17.2226L57.2167 16.7722L55.9772 15.1307L55.416 15.1335L54.6721 15.8289L52.6035 15.125L52.2074 15.4099L51.9139 15.9657L51.1959 16.6554L50.1787 16.9575L49.0445 17.7157L47.8506 18.2514L46.9388 18.6561L46.4145 18.5849L47.2465 17.7099L46.8932 17.6929L45.7876 18.3113L45.1522 18.8329L44.947 19.7106L44.7619 21.1528L45.2462 21.5347L46.0954 23.4327L47.1411 24.2421L46.9388 25.0145L46.6624 25.6244L46.0298 26.1517L45.5055 25.7612L45.1835 25.7698L44.9413 27.0038L45.3944 30.2842L46.1239 32.5756L46.8476 33.5731L48.4804 35.1206L50.2071 35.9357L53.313 38.5321L55.017 39.3529L55.4643 39.7975L56.4958 41.7897L57.3876 44.0839L58.348 47.6692L59.0318 49.4277L60.411 51.4113L63.2717 54.2385L65.8733 56.2991L68.2953 57.5701L70.1845 57.7924L74.6552 57.5131L75.4332 57.6328L76.2596 57.9748L76.4561 58.8555L76.154 59.4483L75.2138 60.0639L74.2564 60.9161L74.1509 62.076L75.0457 62.8911L79.3597 65.0486L83.7707 66.8469L85.1441 67.7618L86.7368 69.1839L90.5807 71.1333L91.2305 72.0795L93.567 74.1116L94.6241 75.6762L94.8265 76.8875L94.3222 78.1159L94.0884 78.9794L93.6924 79.8315L92.698 79.5095L91.5666 78.6317L89.8628 75.0578L86.754 74.6958L86.11 74.4308L85.0044 73.8152L84.9389 73.4076L84.6653 72.9003L84.3832 72.7293L83.195 72.6154L82.3715 73.1967L81.4028 74.5733L80.3028 76.5483L79.1859 79.4354L79.1231 80.5982L79.7301 81.724L81.5423 82.351L82.9415 83.3513L83.8646 84.3944L83.9302 86.9052L84.3434 88.3275L83.7364 89.134L82.5597 88.9259L80.9924 89.4389L79.8812 90.3566L79.4195 91.2287L79.5391 93.486L79.3113 94.3438L77.2055 95.9626L76.0999 97.6157L75.8236 98.2996L75.4018 99.0748L72.7434 99.1033L72.1136 98.1429L72.0908 96.715L72.5467 95.8344L73.5241 95.4211L74.1824 93.5857L73.9743 92.2576L74.3589 91.6677L74.7208 91.2516L75.4645 91.0065L76.516 90.7728L76.6213 88.9117L75.8008 88.0652L75.513 86.8768L75.1311 84.6766L73.7776 81.8579L73.054 79.3357L72.4868 78.0873L71.6263 77.4347L70.0734 77.4433L69.3012 77.258L66.5544 75.4967L66.3634 75.2288L66.3805 74.7585L66.8365 74.0489L66.5287 73.0884L66.2038 72.1793L65.6653 71.4041L65.0754 70.9994L63.8389 71.2473L63.4057 71.4382L62.6249 71.3728L62.0124 71.7176L61.6703 71.729L62.6335 70.3638L62.3742 70.0418L61.4225 69.4803L60.1289 69.3948L59.7698 69.3264L59.559 69.677L59.3082 69.486L59.3339 68.8761L57.8322 66.1344L56.8235 65.0143L56.3135 64.8149L55.393 65.0514L53.8516 64.5612L52.9312 64.4529L52.424 64.5726L51.666 64.9288L51.2842 64.6924L51.1502 64.3247L49.7512 63.1819L48.0045 62.5348L44.6051 58.8783L43.5622 57.5074L41.4166 55.9941L40.0602 53.7825L38.949 52.9702L37.3333 52.3176L36.9601 52.4002L36.4756 52.6453L36.0938 52.6795L35.7918 52.3917L36.0996 52.0953L36.4443 51.9613L36.3104 51.112L34.4697 48.9062L33.3925 48.1936L33.0877 47.7547L32.8625 47.1533L32.6318 46.7573L32.1217 46.5292L31.6857 46.5691L31.0845 46.418L31.1045 45.3522L31.2242 44.5342L31.1329 43.8388L30.546 42.0062L29.5316 40.4501L28.9332 36.7138L28.4716 35.6564L27.3489 34.8555L24.8158 33.955L21.2853 31.5296L20.5388 31.4869L18.416 30.5407L17.0995 30.3782L15.3898 31.2275L13.3126 33.5588L11.6285 35.9727L11.0159 36.4401L8.8418 37.261L6.92133 37.6515L6.90133 37.0358L6.83298 36.5713L7.15777 36.0611L7.69352 35.4598L8.18648 34.7017L8.39162 34.1544L8.29475 33.7897L8.07248 33.2482L7.77039 33.2083L5.94105 33.6642L5.52218 33.5474L4.16876 32.8378L2.71265 31.9657L2.17699 31.3444L1.97464 30.7173L2.12569 30.3126L2.00603 29.9193L1.72107 29.3892L1.97751 28.7879L2.43056 28.0383L2.65857 27.5282L3.04031 27.3971L3.22275 27.0865L2.91779 25.8439L2.75822 25.6443L2.49613 25.4905L2.09151 25.4733L1.38481 25.2169L0.883319 24.7865L0.775056 24.2051L0.510095 23.6465L0.0569575 23.1335L0 22.572L0.515748 22.2756L1.21959 22.2642L1.71533 22.3754L2.82666 21.472L3.23692 21.3921L3.60458 21.1983L3.91233 19.9615L4.14876 19.5909L4.20581 19.3744L3.98633 19.115L3.08883 18.2429L2.67848 17.3309L2.03169 16.3077L1.43046 15.8546L1.30793 15.5012L1.29367 15.0537L1.4162 14.6576L2.50465 14.042L3.14866 13.3865L3.42501 13.6373L4.01198 13.9052L5.60487 13.5404L6.59359 13.1727L7.2889 12.7851L7.71917 12.8535L9.28059 13.432L9.79634 13.1385L10.9219 12.3548L11.09 11.9415L11.9791 10.6875L11.9961 10.3826L11.6314 9.59312L11.7454 9.41926L12.8339 8.60986L13.3667 7.89162L13.9452 7.41004L14.3612 7.39865L14.4751 7.5639L14.5236 7.90023L14.4866 9.28531L14.6462 9.70993L15.501 10.7018L16.1107 11.2661L17.5269 11.6537L17.5925 11.8389L17.202 12.5827L18.0598 13.472L18.2136 14.1218L18.6097 14.4866L19.1681 14.307L19.3506 13.9622L19.1311 13.3608L18.9687 12.7309L19.0001 12.3662L19.154 11.9472L19.5443 11.3601L20.6043 10.015L20.9861 9.23687L21.0545 8.0313L21.0574 7.06231L21.4107 6.82574L22.1715 6.9996L22.3994 6.97968L22.502 7.57529L22.8268 8.52437L23.2086 9.01456L23.6161 9.13137L24.0948 9.13424L25.2802 8.55568L26.0524 8.30493L26.4912 8.37329L26.7505 8.76659L27.3033 9.80117L27.6196 9.91797L28.0014 9.79829L28.1353 9.62165L28.0128 9.22261L27.8504 8.35903L27.6282 7.68932L27.3375 7.37577L27.2777 6.96829L27.46 6.23291L27.668 5.61739L28.0726 5.44918L28.5372 5.37221L29.1498 6.02487L29.8764 6.23013L30.4177 6.19586L30.5118 5.81682L30.4776 5.40073L30.1556 4.86497L30.2183 4.0527L30.5915 2.53646L30.8053 2.65336L31.6088 2.66762L32.4836 2.75312L33.0478 3.37151L33.6006 3.58243L34.387 3.64801L34.9141 3.56251L35.1706 3.32881L35.4755 2.60491L36.0397 1.70715L36.923 1.2454L38.4332 1.1599L39.1883 0.99178L39.972 1.0003L40.5618 1.13999L41.1715 1.12285L42.7217 0.495846L44.3202 0L44.5424 0.0826266L44.5766 0.247967L44.2888 0.629875L44.0096 1.13712L44.1976 1.71568L45.1066 2.87567L45.6024 3.76203L46.0697 4.426L46.7963 4.7766L47.7509 4.99038L48.5601 5.06727L49.4064 5.31811L52.31 5.93659L53.7718 6.10758L54.8801 6.13324L56.5471 6.50654ZM46.8334 36.1495L47.0699 35.5794L46.9816 35.172L46.4801 35.2546L46.1267 35.7847L46.3632 36.2321L46.8334 36.1495ZM46.4658 57.9464L46.4601 57.8609L46.4002 57.8694L46.3746 57.9207L46.4002 57.9549L46.4658 57.9464ZM30.1215 47.5894L30.3864 48.0113L30.4177 48.2564L30.2382 48.5356L30.3123 49.1626L29.6427 48.6411L28.6312 48.9033L28.0099 48.8463L27.839 48.3789L27.9815 48.1053L28.9446 48.0454L29.2438 47.9115L29.8308 47.9742L30.1215 47.5894ZM24.0151 68.7393L24.4168 69.4119L25.3144 72.165L25.3999 72.7578L25.2204 73.3649L24.9924 73.7953L24.1006 75.1746L24.2316 76.3118L24.5621 77.0157L24.6106 77.7938L24.4454 78.7571L23.8926 84.6538L23.6247 85.694L23.4566 86.5918L22.8468 86.8654L22.0604 86.5775L21.0688 86.0702L20.61 86.1016L20.1484 86.2755L19.7694 86.1273L19.4075 85.8394L19.1368 87.8515L18.6894 88.6666L18.0085 89.1882L17.3673 89.2195L16.7063 89.0456H16.1477L15.7232 88.6608L15.3869 87.9826L14.8513 87.159L14.307 86.1814L14.2472 85.295L14.1532 83.3371L14.3099 82.9096L14.5378 82.4992L14.6489 81.6214L14.5721 80.8547L14.7316 80.5811L15.0479 80.8547L15.2844 80.7521L15.2702 80.356L15.3414 79.6349L14.9254 79.0307L14.2215 78.8255L14.1532 78.1928L14.2273 77.5744L14.5977 77.1583L14.723 76.6054L14.7259 74.9153L14.2301 74.2911L14.0392 73.3449L13.7827 72.7407L13.3211 72.1308L12.7968 71.6349L12.4748 71.1561L12.4036 69.9022L12.5859 68.8533L12.7513 68.4031L12.9193 68.4686L13.438 68.9902L13.8625 69.107L14.7031 69.2324L15.5295 69.0643L16.5438 68.5882L17.5212 68.0125L18.9374 66.3168L19.8093 65.9719L20.2567 65.5245L20.4105 64.9203L20.781 64.7636L21.217 65.3507L21.7583 65.4134L22.5932 65.8978L22.9522 66.3596L23.2599 66.9154L23.5563 67.1605L23.8726 67.3L23.9182 67.4312L23.6674 67.5623L23.3796 68.1978L23.542 68.3802L24.0151 68.7393ZM13.2527 67.075L12.9878 67.5565L12.6116 67.5224L12.7598 67.1661L13.1074 66.4507L13.5292 66.2114L13.7172 66.4252L13.5177 66.8355L13.2527 67.075ZM58.4534 70.5975L58.0972 70.6887L57.8892 70.5634L57.7753 70.4038L57.9148 70.0076L58.6414 70.2442L58.6329 70.4665L58.4534 70.5975ZM14.7971 87.6064L14.3355 88.621L13.854 87.9028L13.8341 87.2872L13.8995 87.1105L14.4922 87.3699L14.7971 87.6064ZM71.5552 96.2476L71.0138 97.399L70.7487 97.8407L68.8197 100.648L68.5974 101.295L68.4607 101.999L68.2612 102.615L67.9934 103.193L67.7396 103.928L67.7882 104.761L67.8793 105.168L68.113 105.436L68.4948 105.687L68.7883 106.074L68.3381 106.425L68.831 107.129L69.2527 107.545L69.3097 107.961L69.3012 108.377L68.4264 109.158L68.0845 109.589L67.8736 110.11L67.7824 110.646L67.8765 111.13L67.848 111.612L66.9674 111.552L66.0671 111.256L65.158 111.384L63.8644 110.825L63.3943 110.726L62.9669 110.506L61.8926 108.773L61.0265 108.041L60.0974 107.468L59.1487 107.434L58.1998 107.499L57.3621 107.146L55.6553 105.963L53.8458 105.014L53.0794 104.399L52.7288 103.983L52.3185 103.706L51.2842 103.432L50.3524 102.788L49.9307 102.743L49.0218 102.82L48.5545 102.774L48.0843 102.546L47.1782 101.791L46.5969 100.742L46.4458 100.278L46.8562 99.0777L47.3434 97.9234L47.7737 97.6014L48.2751 97.3677L48.5772 97.0257L48.8337 96.6067L49.7654 97.8151L50.1814 98.1086L50.6032 98.0431L51.3497 97.6099L51.4124 97.134L52.2388 96.5326L53.2874 96.5212L53.7718 96.6324L54.0253 97.1767L54.4243 97.3449L54.8859 97.4161L56.4074 98.4507L56.8349 98.6188L57.2652 98.6474L58.4477 98.2141L59.3538 98.0488L61.2543 98.2882L62.2802 98.0289L62.9982 97.9975L64.0439 97.5985L64.8476 96.9345L65.2664 96.7691L65.7166 96.7207L66.805 96.7635L67.8993 96.9145L68.3581 96.7577L68.7428 96.3217L69.1871 96.1251L69.6745 96.2561L70.9367 95.5095L71.4952 95.4581L72.0253 95.746L71.5552 96.2476ZM43.3627 110.937L42.9781 111.048L42.4766 110.706L42.4424 110.227L42.5336 110.084L43.1433 110.304L43.3343 110.748L43.3627 110.937Z" fill="black"/>
</svg>
