<svg width="76" height="53" viewBox="0 0 76 53" fill="none" xmlns="http://www.w3.org/2000/svg">
<path d="M63.7391 32.8121L64.5826 33.9834L65.6512 34.6077L68.1244 35.266L68.3467 35.1861L68.3695 35.0636L68.1985 34.8926L68.1728 34.676L68.2926 34.4081L68.6345 34.3939L69.193 34.6332L70.2587 34.2856L71.8259 33.3508L73.2676 33.1627L74.5784 33.7156L75.2508 34.3597L75.684 34.9724L75.5472 35.7276L75.4645 36.1979L75.1198 38.1388L74.8804 38.8627L74.4958 39.6721L70.4239 40.6383L70.686 40.1736L70.5919 39.3615L70.421 38.7459L70.7999 38.193L69.8853 37.9906L69.4836 38.2955L69.1702 38.8256L69.4465 40.0483L69.002 40.7238L68.831 41.0999L68.811 41.992L68.5462 42.3739L68.4949 42.7957L69.1444 42.6874L68.851 43.454L67.6314 44.9247L67.2041 45.8024L67.3095 49.2652L66.7653 51.3286L66.7225 51.9357L65.4289 51.9556L65.0412 51.9071L63.816 51.5993L62.4398 51.0522L61.6334 49.9863L61.1177 49.2253L59.9493 49.5702L59.73 49.479L59.4079 49.1113L58.5304 48.8634L57.4448 48.8577L55.0084 47.464L54.7406 47.2303L52.8257 47.464L49.9593 48.1537L47.7737 49.0058L45.5141 50.5192L44.5995 51.6649L43.5365 52.272L42.0264 52.7223L39.328 52.5542L36.5156 51.9784L33.4981 51.36L31.8654 51.702L29.6598 51.4455L26.3317 50.7073L23.8527 50.4821L21.4078 50.9182L20.9976 50.5848L20.9092 50.2029L21.0033 49.6642L21.348 49.2281L21.9407 48.8975L22.2513 48.5613L22.2856 48.2221L21.6216 47.6749L20.2595 46.9196L19.6982 46.4466L19.5614 46.3297L19.5243 45.9051L19.2422 45.5716L18.7123 45.3265L18.3048 44.8848L18.0142 44.2435L18.0768 43.6393L18.49 43.0721L19.02 42.8242L19.664 42.9011L19.9318 42.7387L19.8236 42.3426L19.1939 41.8324L18.0398 41.214L16.8658 41.5502L15.6662 42.8441L14.8058 43.0522L14.2757 42.183L13.3353 41.6614L11.9819 41.499L11.1499 41.1655L10.8393 40.6611L10.2466 40.2734L8.94154 39.8602L8.92449 39.4669L9.13528 39.3729L9.59981 39.3358L10.221 39.2531L10.3207 39.028L10.3264 38.8227L9.83634 38.5634L9.34328 38.3867L9.08398 38.21L8.91876 38.0134L8.88467 37.8082L9.02989 37.6685L9.22937 37.66L9.42607 37.5374L9.53703 37.0615L9.80503 36.6682L9.99582 36.5314L9.98451 36.2407L9.78503 35.97L9.51424 35.7363L9.11545 35.5937L7.873 35.1834L7.24621 34.6133L6.8615 34.5905L6.25454 34.2742L5.59922 33.7783L5.0293 33.0715L4.41659 32.6126L4.25711 32.4245L4.24285 32.2478L4.35677 32.0483L4.3512 31.8317L4.19155 31.1392L4.2999 30.4039L4.27137 29.7113L4.26285 29.4006L4.1432 29.3037L4.03763 29.4092L3.88667 29.5403L3.7385 29.566L3.28545 29.0615L2.71274 28.0327L2.32526 27.6878L1.57011 27.2147L0.931841 26.8157L0.475834 25.955L0 25.2881L0.313396 25.0088L2.12856 24.6155L2.97483 25.0003L3.35379 24.8606L3.72145 24.5499L3.9265 24.2992L3.96354 24.0341L4.14598 23.7035L4.75869 23.5467L6.38271 23.7491L7.03525 23.2845L7.27751 23.0338L7.42569 22.4751L7.59665 22.0249L8.17787 21.7854L8.16935 21.3751L8.081 20.9304L8.41736 19.9301L8.6224 19.5197L8.95302 19.3715L9.34902 19.0552L10.0386 18.3996L9.87912 17.8296L10.0158 17.405L10.7339 16.3733L11.2809 15.3758L11.2724 14.8742L11.3522 14.4381L11.8365 13.9593L12.3439 13.3351L13.0134 11.38L13.2557 11.0523L13.6945 10.6789L14.0221 10.3085L14.0564 9.02021L14.3641 8.64691L14.9538 8.22795L15.541 7.55537L16.0168 6.75738L16.3843 6.38399L16.8716 6.28423L17.3987 5.97077L17.9885 5.85388L18.5613 6.00782L18.9231 5.92798L19.473 5.54042L20.8722 4.06975L21.0689 3.77621L21.3595 3.5739L22.4936 3.06945L22.7812 2.56212L23.1717 2.10611L23.676 2.14029L25.323 3.26897L27.0839 3.19765L27.406 3.24044L27.5114 3.26323L27.7279 3.35446L30.0702 3.91302L30.432 3.85031L30.5318 3.80761L31.475 4.2664L32.3097 4.20656L33.1019 3.88736L33.9254 3.77908L34.6834 3.97008L35.259 4.617L36.7549 5.99069L37.1994 6.50367L37.8834 6.42678L38.6413 6.1702L39.4078 5.2554L41.7643 4.2123L43.5623 3.95294L45.3174 3.53398L47.3491 3.23757L47.9361 2.3826L48.261 1.7983L48.4918 0.715285L49.586 0.401826L50.6261 0.179517L50.9965 0.0427049L51.7544 0L52.3442 0.0911502L53.2532 0.627005L53.8915 1.29672L54.1423 1.8297L54.6865 2.58204L55.2592 3.63374L55.8917 5.03309L56.0286 5.73707L56.2679 6.5008L56.738 7.42709L57.6356 8.45313L57.761 8.64404L58.1684 9.36507L58.9549 10.9583L59.6132 11.5938L60.1859 12.2864L60.4622 12.9818L60.8727 13.6116L61.8356 14.4467L62.6165 15.2048L63.2405 17.3793L63.6764 18.3768L63.9557 19.1378L63.8217 20.6768L63.9955 21.3351L63.6393 22.535L62.9955 24.9404L62.8388 26.8499L62.9499 27.8759L62.964 28.5343L63.1209 28.9532L63.2918 29.8196L63.3174 30.572L63.0866 30.7858L62.7647 30.9653L62.6393 31.122L62.9356 31.4612L63.3402 32.091L63.7391 32.8121Z" fill="black"/>
</svg>
