<svg width="105" height="240" viewBox="0 0 105 240" fill="none" xmlns="http://www.w3.org/2000/svg">
<path d="M104.05 67.3514L101.93 67.8017L100.337 66.8983L99.5423 67.3514L98.1547 67.3714L96.576 67.7276L96.0431 68.4316L95.6244 68.7137L94.1626 67.7191L92.7805 66.0689L91.7718 67.3257L91.1194 67.5623L90.5295 66.4252L90.0166 66.2399L89.7403 66.6189L89.498 67.625L89.1105 68.4145L89.0079 68.9132L88.9423 70.9196L88.8427 71.3842L87.5006 71.1248L87.5804 71.6521L87.8738 71.9171L87.9934 72.2506L87.5063 72.6866L86.1755 72.6439L86.0388 73.1084L86.412 73.838L86.1186 74.4793L85.8478 74.7301L84.255 75.1262L83.3346 75.035L83.0697 75.4483L82.9984 75.9841L83.1723 76.5113L83.5796 76.7906L83.7136 77.1241L83.6852 77.8452L83.3461 77.9762L82.3887 76.708L82.0951 76.7735L82.3146 77.4319L82.8617 78.1501L83.1779 78.8826L83.4544 79.7604L83.4002 80.4272L82.2092 82.5704L81.1605 83.9185L80.3798 85.1298L79.9182 86.4123L80.4538 87.0564L81.0466 87.9855L81.4655 89.7667L81.9641 91.3513L82.9699 92.859L82.7676 93.7282L82.5341 94.4037L80.8613 95.8885L78.9636 98.1172L76.9178 103.772L76.2367 104.527L74.4473 105.476L73.789 106.394L72.4555 107.482L70.1276 108.417L69.0731 109.717L68.5973 111.056L68.0674 111.153L67.5402 110.629L66.8392 110.238L66.7481 111.113L66.7794 111.755L65.6567 110.806L65.1268 111.678L64.7136 113.128L63.0979 115.078L61.357 114.727L61.1633 115.069L61.6248 115.317L61.696 115.628L61.3798 115.793L60.901 115.776L60.1631 116.161L59.6785 116.132L59.4478 117.05L59.0718 118.159L58.0886 118.617L57.5815 118.711L57.3307 119.341L58.8438 119.472L58.7241 120.005L58.6898 120.538L58.5331 121.108L56.8121 121.929L56.547 122.573L56.1881 122.972L55.4216 122.949L55.4501 122.579L55.5753 122.16L54.4357 122.197L54.0795 121.271L53.863 121.507L53.9911 122.254L54.2875 123.029L54.6209 124.166L54.3501 124.882L54.051 125.238L54.2705 125.566L54.8773 125.816L55.1223 126.264L54.4014 126.646L53.5011 127.957L52.5664 127.988L51.9965 128.855L51.3895 128.852L50.8967 128.307L50.1074 127.86L49.8537 128.647L49.8139 129.274L50.2584 130.855L51.1074 132.075L51.8939 132.602L51.3269 132.959L50.9052 133.745L50.3951 136.196L50.1187 137.16L49.8196 138.852L50.0076 140.277L50.1615 140.976L50.5462 141.925L49.5005 141.802L48.3949 141.249L48.5488 142.398L47.8705 143.754L47.9959 144.946L48.1384 145.718L47.9276 146.998L48.2467 147.4L48.4204 148.161L48.1326 148.722L48.258 149.204L48.3065 150.905L48.5231 153.558L48.4432 154.117L49.0502 156.408L48.9105 157.209L48.8279 158.227L49.6999 159.204L50.4749 159.19L51.2614 159.176L51.5605 159.418L51.8626 160.108L52.1049 160.923L52.7517 160.857L53.7859 160.196L54.4585 160.039L54.903 161.31L56.1112 162.986L56.815 163.736L58.0088 164.132L59.2683 165.477L59.0916 167.096L59.6159 167.635L61.1005 168.27L61.6276 169.128L61.8812 169.858L62.2716 170.462L62.7304 172.283L62.5708 173.403L61.9725 173.788L60.5563 174.985L59.9266 175.877L59.4335 176.43L58.0288 177.618L57.5131 177.832L57.0201 178.448L56.5442 178.718L56.1167 178.564L54.5211 179.679L53.444 179.371L52.991 178.821L53.2788 176.632L53.0993 175.925L52.8913 175.569L52.1847 175.977L52.3099 176.815L51.0876 176.849L49.9365 176.139L49.7883 177.536L47.3149 176.378L46.6338 176.672L45.5425 176.091L44.8331 176.786L43.9896 176.535L43.4054 175.709L42.5962 177.162L40.8295 177.575L39.1683 177.806L39.969 178.291L43.6962 178.2L44.7505 178.559L46.1209 178.319L47.3349 179.459L48.2097 179.733L49.2439 181.041L49.774 180.685L50.6061 180.739L51.3753 181.112L53.8174 181.064L54.6465 180.152L55.8689 180.351L56.4929 180.115L56.9717 179.556L57.4959 179.428L57.9717 179.533L58.479 179.092L58.878 178.915L59.2883 179.129L59.7471 180.186L58.7952 180.733L58.1199 180.759L57.7895 182.486L57.382 183.227L57.0884 183.583L55.5926 184.316L54.6039 185.242L53.4383 185.986L52.9311 185.823L52.1647 186.579L50.4636 187.471L49.5888 188.673L47.6312 189.745L46.6338 190.617L43.924 190.663L41.3369 190.472L40.5247 190.885L41.3567 191.013L41.9381 191.418L42.6362 191.247L44.2774 191.449L45.1209 191.672L46.2037 193.091L45.4086 193.593L44.0296 193.98L44.548 195.981L44.9727 197.326L44.4141 198.135L44.3715 201.803L43.5878 201.872L43.2545 203.382L43.4995 204.152L43.4795 205.933L43.6419 207.027L44.0266 208.034L43.8557 209.079L42.6162 211.522L42.6419 212.665L42.867 213.343L43.0322 214.423L42.468 216.495L42.072 218.219L41.5989 219.667L40.5419 221.397L40.0146 222.688L38.7838 226.698L38.1738 227.491L37.4244 228.098L36.5896 227.536L35.8232 227.231L34.8886 227.268L33.4239 227.73L31.2212 227.422L29.07 227.57L28.5257 227.967L28.8533 229.411L28.0584 229.6L27.2834 229.189L26.5996 229.679L26.0296 230.215L24.9098 231.486L24.5336 232.267L24.4367 233.735L25.0267 235.049L25.5481 236.585L24.206 238.429L23.4566 238.492L21.2682 237.979L17.3902 239.133L13.9081 238.221L14.3441 237.232L14.3298 236.505L14.5264 235.385L14.6433 234.236L14.6119 233.467L14.3555 232.643L13.4978 231.566L11.563 227.915L10.9903 226.368L10.5914 225.721L10.8791 225.686L12.4748 226.519L12.8453 226.416L13.2356 226.105L12.7598 224.911L12.3494 224.373L12.0731 223.563L13.0048 223.344L13.6801 223.392L14.176 222.48L13.8881 221.001L13.1644 220.545L12.5603 220.346L11.4006 218.009L10.1924 216.794L8.03544 212.089L7.24612 208.834L6.51385 209.145L6.15767 207.723L5.90114 206.369L5.84992 205.375L4.69869 204.804L4.65312 204.103L4.44512 200.968L3.21127 200.547L2.41343 198.78L2.27099 195.419L1.45889 194.807L0.806361 194.978L0.837753 194.143L0.994451 193.356L0.612619 190.227L0.484356 187.357L0.176699 186.485L0 185.464L0.156698 184.581L0.390354 184.071L1.18532 183.937L1.92908 184.718L2.58726 186.684L3.16857 186.941L3.96067 186.428L4.51634 184.994L4.8326 182.837L5.20304 180.77L4.76425 178.553L4.29694 176.598L4.26277 176.022L5.49087 174.364L5.86697 173.013L6.27445 171.722L6.72463 171.283L7.39143 171.183L8.16935 170.941L9.14954 170.074L10.03 168.911L10.7025 167.843L10.9304 165.722L10.939 164.654L11.2353 163.858L11.5203 162.302L11.2411 160.763L10.3719 158.421L9.32624 155.106L9.1638 153.288L9.63964 152.949L10.5486 152.646L12.2725 152.558L12.4549 152.344L12.6287 151.544L13.0191 150.458L13.4322 149.665L13.7172 148.528L13.854 147.496L12.868 145.938L11.5772 144.336L10.7025 143.803L9.14667 142.452L8.05248 141.321L8.67936 136.986L9.14667 133.734L9.22076 132.942L9.23789 131.71L7.72769 126.424L7.78752 125.241L7.92996 124.172L7.76752 122.345L7.67926 120.706L7.93857 120.208L8.55397 119.279L7.96413 117.836L7.9157 117.717L6.80446 114.131L8.50275 110.555L8.2064 108.694L9.21789 107.34L11.0644 104.228L12.1016 102.466L12.321 102.159L13.1416 101.383L14.7002 100.463L16.427 100.013L17.1963 100.018L20.1655 100.642L22.4821 101.127L22.8211 100.64L23.3056 99.6392L23.9296 98.2113L23.9837 96.6181L23.7587 94.2698L23.4195 92.859L21.7896 91.9384L20.0031 90.6759L22.2 86.6545L23.7216 83.8444L25.6192 79.5894L26.2091 77.8081L26.6366 77.0984L27.1951 70.4579L27.5655 68.5855L27.8761 67.6022L27.8789 66.5933L27.6766 64.8862L27.1438 61.0102L30.1414 60.5285L31.1158 60.2549L32.0219 59.7903L33.7943 58.5819L34.6634 57.5103L34.179 53.8395L35.2503 52.5912L37.8662 48.2193L40.6928 43.9984L42.0177 42.391L42.1546 41.6044L42.2628 40.3362L41.673 38.3355L41.0405 37.0929L39.8066 34.7302L40.3367 33.0744L41.2455 32.7523L42.4452 32.0996L43.3826 30.6775L43.4739 30.4951L45.0581 24.8635L48.1498 21.985L49.3836 20.4089L51.3041 21.5945L54.1193 23.3786L55.3703 20.7538L55.7835 19.7762L56.1966 18.3341L56.0314 15.8261L55.9601 12.5515L56.0854 11.229L57.2082 10.6391L57.8123 10.4881L60.941 11.8503L61.7275 11.8276L63.2033 12.0099L64.8532 12.6056L68.3096 14.1902L69.7371 14.8429L70.5349 14.9683L71.2245 14.233L72.6977 12.3377L70.5293 10.9298L71.9568 9.50197L72.6977 8.057L73.3332 6.27575L73.564 4.18382L73.4756 3.05523L73.0369 2.28289L71.7118 0.356251L74.7122 0.0798434L75.7524 0L77.935 1.27114L78.0319 1.5476L78.0462 2.20878L78.123 2.8928L80.2401 4.62274L80.85 5.53759L82.1521 6.92267L82.497 7.6694L83.7022 8.5415L84.5656 9.47344L85.5743 10.2259L86.7512 11.3943L88.3326 12.3235L89.6662 12.6256L93.0285 14.213L93.6012 14.726L94.5701 15.8289L95.5503 17.1L96.2284 19.705L97.3139 19.8389L97.6103 20.731L98.5592 22.2557L99.8757 23.5981L99.8272 24.0484L98.7787 25.2796L98.6646 26.944L98.7644 29.0616L99.0948 30.783L99.0608 31.2846L98.8015 31.8774L98.4908 32.8036L98.3769 33.6102L98.4053 34.0035L98.5108 34.2201L99.0635 34.2372L100.052 34.4281L100.634 34.7844L100.964 36.7423L100.853 37.1185L100.021 38.0021L99.7759 38.7031L99.7531 39.7291L99.9013 40.8578L100.189 42.1146L100.842 43.4569L101.725 44.8563L102.306 46.002L102.58 46.8057L102.679 47.37L102.283 48.0768L101.927 49.4704L101.862 51.0607L101.699 52.0953L100.924 53.5175L100.386 54.0191L100.232 54.7658L100.166 56.017L100.326 57.5388L100.38 58.5649L100.545 59.303L100.79 59.7846L102.036 60.6311L102.734 62.3639L103.17 63.7518L104.05 67.3514ZM59.5846 177.92L59.3852 178.442L59.1829 177.803L59.2625 177.678L59.3994 177.048L59.7869 176.703L60.4052 176.911L60.4024 177.068L59.8097 177.578L59.5846 177.92ZM58.1514 184.812L57.7952 184.96L57.6185 184.914L57.8378 184.193L58.0003 183.883L58.5389 183.592L58.7041 183.643L58.1514 184.812ZM64.0725 201.706L63.9271 202.644L63.5111 202.573L63.1322 201.88L63.8986 200.823L65.0698 200.88L65.4715 201.102L64.0725 201.706ZM63.4313 203.009L62.7703 203.365L62.3828 204.423L61.8471 204.602L61.3342 204.953L61.1518 208.276L62.0892 209.533L61.5735 209.709L61.1033 210.086L60.7671 210.641L60.4224 211.835L59.1316 212.511L58.6443 213.01L57.9234 214.118L57.5472 215.723L56.8178 216.407L55.9971 216.569L56.4759 215.258L57.1056 214.187L56.5015 213.449L56.1367 212.294L55.6637 211.405L56.0399 210.41L55.8547 208.78L55.9145 207.181L56.4616 206.375L57.0884 205.716L58.063 204.197L59.1201 203.092L60.5961 202.596L61.2629 203.055L61.5508 202.048L62.0266 201.818L62.4739 202.051L63.4313 203.009ZM43.0579 225.704L42.6447 226.427L42.28 226.376L42.0377 225.41L41.9807 222.919L42.1261 221.682L43.8699 217.202L44.6479 216.834L45.742 214.07L46.0383 212.833L46.5142 211.719L46.7935 210.718L47.03 210.314L47.5401 210.502L47.7679 210.687L47.2295 211.268L47.2921 212.024L47.255 212.334L45.8959 215.609L45.534 217.724L45.0524 218.239L43.0579 225.704Z" fill="black"/>
</svg>
