<svg width="154" height="65" viewBox="0 0 154 65" fill="none" xmlns="http://www.w3.org/2000/svg">
<path d="M18.7579 1.33942L18.5413 2.56212L19.0457 3.90728L20.2254 5.76838L21.4136 6.70606L26.2149 9.02021L27.0982 9.21686L26.8987 10.1631L26.6081 11.001L26.2917 11.5596L24.8841 11.9187L21.0031 10.8898L20.0202 10.7929L19.3278 10.9981L18.0455 11.7448L16.6236 11.5054L14.6404 11.9273L14.0875 13.3323L12.7113 14.9369L10.4461 16.2307L8.82762 16.9233L6.39419 19.3972L5.29139 20.8363L4.82686 21.1157L4.27416 21.338L4.45938 20.6454L4.73295 20.0127L4.67016 19.5339L4.68164 18.8385L5.49087 18.049L6.2288 17.4762L8.40866 16.436L8.98432 15.5695L7.27455 15.5895L5.53644 15.7805L4.44512 15.6579L3.49345 15.7291L3.19414 14.9711L2.96335 14.5151L3.21136 14.3726L3.52475 14.2728L4.0832 13.4634L4.58181 12.8677L5.29991 12.1153L5.48235 11.665V11.2461L5.30844 10.9554L5.27435 10.6077L5.25156 10.1204L5.29139 9.10858L6.93838 8.00278L7.46551 7.88597L7.645 7.37864L7.52534 6.20439L7.29734 5.2554L7.00098 5.19269L6.60498 4.91619L6.34567 4.59421L5.92966 4.24361L5.21452 4.02705L5.19174 3.72776L5.26583 3.42848L5.5307 3.12068L6.73889 2.85566L6.88133 2.63909L7.04377 2.10324L7.28308 1.55608L7.56812 1.37647L8.07822 1.39361L9.04693 1.26819L9.72225 1.08867L10.3918 0.712502L10.7367 0.370428L12.1899 0.173777L12.5974 0L13.002 0.148119L13.5461 0.732419L14.4409 1.57034L14.9197 1.84962L15.2787 1.72133L15.9284 1.41639H16.5495L17.0511 1.47058L17.2932 1.20548L17.6723 1.14851L18.7579 1.33942ZM126.68 6.16168L127.21 6.37547L128.213 6.649L128.834 6.9796L129.188 7.06796L130.006 6.39538L131.22 6.41252L132.288 6.4894L132.838 6.61482L133.513 6.83713L134.328 6.98821L134.662 6.66614L135.138 5.71706L135.323 5.59739L135.454 5.51189L136.058 5.43779L136.631 5.50902L136.901 5.67149L137.172 6.43244L137.853 6.70319L139.056 7.91441L139.791 8.39895L139.97 8.60125L139.728 8.84635L139.825 9.1485L140.244 9.5418L140.833 9.69001L141.472 9.63582L141.819 9.77838L142.067 10.0006L142.133 10.3141L142.116 10.5137L142.241 10.9611L142.74 11.5938L143.332 11.9814L143.652 12.3947L144.17 13.8168L144.381 14.6006L144.301 15.3558L143.942 16.1282L143.156 17.0886L143.349 17.4905L143.526 18.0206L143.466 18.4053L144.025 19.6308L144.278 20.3918L144.068 20.5685L143.931 20.8107L144.934 21.395L146.136 21.8852L146.643 21.9792L148.023 21.7541L148.912 21.7057L149.795 22.1702L151.08 23.2959L152.468 24.7608L152.744 25.2055L152.864 25.4021L153.135 25.7555L152.852 25.7497L152.396 25.4334L151.294 24.5328L150.73 24.9204L150.242 25.5874L149.709 28.1153L149.279 28.3832L148.518 28.3774L147.587 28.2892L146.946 28.4145L146.78 28.5741L146.866 28.8449L147.057 29.261L147.191 29.7854L147.23 30.2129L147.567 30.6005L148.02 30.9682L148.04 31.3443L147.971 31.8773L147.866 32.282L147.752 32.5129L147.963 33.1285L148.456 33.8552L148.769 34.1345L148.652 35.5167L148.838 36.1295L148.98 36.9731L148.923 38.3753L148.983 38.7202L149.151 38.837L149.601 38.8912L150.04 39.0194L150.194 39.2502L150.191 39.4184L149.641 40.0597L149.576 40.5156L149.385 41.1569L149.228 41.5332L148.738 42.2457L148.427 42.9696L148.285 43.5652L148.379 43.8473L149.285 43.9328L149.775 44.3603L151.083 45.2125L151.314 45.5573L150.957 46.0817L150.963 46.3011L151.134 46.5805L151.214 47.0678L151.183 47.6065L151.188 48.319L151.428 48.4359L152.317 49.1027L152.949 49.7696L152.969 49.9777L152.664 50.5049L152.73 51.112L152.719 51.2516L152.445 51.0236L151.952 50.941L151.445 50.9154L151.126 51.0949L150.567 51.5708L149.815 52.0895L149.205 52.5655L148.855 52.8933L148.564 52.8391L148.339 52.5541L148.214 52.1551L148.268 50.6475L148.134 50.1743L147.849 49.8437L147.513 49.6556L147.114 49.5502L146.701 49.5388L146.116 49.9806L145.287 50.4394L144.002 50.4024L143.139 50.3169L142.723 50.2314L141.05 49.5303L140.702 49.5131L140.078 49.2281L139.338 49.003L138.089 49.4305L137.551 49.3279L136.796 48.9574L136.528 49.0571L135.684 50.1857L134.248 51.3913L133.473 51.5937L133.106 50.3824L132.75 49.9121L132.581 49.8551L132.223 49.7041L131.943 49.7896L131.08 50.6161L129.695 51.112L128.55 51.4141L126.726 51.7817L125.318 51.9641L124.72 51.9784L123.421 51.8131L122.275 51.5823L121.13 51.5908L120.249 51.6962L118.209 52.5826L114.738 54.4038L112.1 55.273L110.621 55.635L109.461 55.8402L107.478 55.8516L105.862 55.7119L104.742 55.7261L104.121 55.5067L103.235 54.7714L102.164 54.0447L101.685 53.8737L101.061 53.734L100.149 53.6513L97.8696 54.7172L97.1602 55.008L96.3793 55.2246L94.8036 55.8744L94.1055 56.2221L93.2308 56.1907L92.1139 56.0995L91.145 56.1308L90.4982 55.6378L90.1477 55.0821L88.8284 54.74L87.8853 54.6403L87.643 54.8882L87.3922 55.6464L86.9905 57.5815L86.9164 58.066L87.7484 59.9841L87.7114 60.2748L87.1187 60.3745L86.4378 60.4087L85.9932 60.5797L85.6256 60.896L85.4033 62.5491L84.6141 62.8512L84.2379 63.196L83.8504 64.2163L83.6395 64.2391L82.3629 63.4668L81.7646 63.4041L82.2803 62.6032L81.7219 61.0158L81.1121 59.5281L81.6876 58.5762L82.8788 57.4248L84.1297 56.0739V55.2388L84.0642 54.6004L83.705 54.1587L83.0155 53.5716L81.8615 54.1986L81.038 54.8911L80.4994 55.0308L79.9154 55.4241L79.6304 56.1366L78.9237 56.6895L77.7696 56.9061L76.0345 56.3132L74.1708 55.4127L73.1165 54.6802L72.256 54.5035L71.4382 54.8256L69.0248 56.6154L66.8164 59.2259L66.2694 59.6763L64.1892 60.7963L62.8158 61.1697L62.169 61.0842L59.4307 61.5744L58.0716 61.6456L56.9945 62.2356L54.9058 61.5972L53.6578 60.7792L52.9056 59.9471L51.6803 58.1544L50.8111 57.3022L48.8592 56.5328L45.4571 54.6631L44.5623 54.4579L42.24 54.19L39.7925 54.019L39.2966 54.7002L39.1085 57.3934L38.6897 58.1315L38.5102 59.5252L38.2109 59.9242L37.7408 60.1864L37.0057 59.7475L36.4956 59.5538L35.3074 60.1266L32.9565 60.9274L32.1558 61.0415L29.4318 60.0326L28.4346 59.3828L27.7905 58.6645L27.574 57.4476L27.1693 56.755L27.1095 56.279L26.95 55.7319L26.4001 55.5152L25.8102 55.9314L25.1776 55.9143L24.3854 55.6607L22.5134 54.6375L21.0772 54.5548L20.2111 55.8031L19.5386 56.1993L18.8034 56.319L18.7607 55.9656L19.3191 55.1562L17.0766 55.3044L15.8942 55.9199L14.9709 55.823L14.2785 55.5466L14.3811 55.2074L15.082 55.0821L15.6919 54.8056L18.1196 54.5804L18.6866 54.3553L19.3078 53.4746L20.4362 52.7165L20.5816 52.3917L19.7123 52.3888L15.991 52.6083L13.438 52.4886L13.1359 52.8647L12.7512 52.9189L12.6458 51.8958L13.0505 51.4198L13.5919 51.4654L14.9282 51.0522L14.8086 50.2L13.854 49.6243L13.6602 49.2823L12.9649 49.2025L12.4035 48.7949L12.2811 47.7689L11.8338 46.6404L11.1955 46.096L11.2751 45.7967L12.4463 45.4149L12.6886 43.8331L12.5091 42.8612L11.9192 42.7786L10.201 42.0091L9.67946 42.0917L9.10972 41.2453L8.11231 40.6382L7.61943 40.8605L7.30882 41.137L6.84724 41.0058L6.07506 40.4786L5.31417 40.1937L4.97799 39.8402L5.39974 38.8969L5.98097 38.9196L6.08636 38.1815L5.62757 36.9475L5.67314 36.3119L6.18045 36.1381L6.75889 36.2578L7.34308 36.9959L7.53386 37.7084L7.41143 38.4038L7.78187 39.0765L8.04674 39.2474L8.22344 38.5377L8.47144 38.4038L8.81336 38.7116L9.54555 38.8655L11.4433 38.4323L11.808 38.0647L10.4176 38.1074L9.91025 37.7626L9.35755 36.9902L9.01841 36.2891L8.95858 35.9443L8.7678 35.4398L8.97858 35.1691L9.93025 34.7644L10.7652 33.6272L10.4146 33.2995L10.0158 33.1427L9.58259 33.2595L9.17232 32.8691L9.11824 32.3276L9.44589 31.8887L9.48016 31.2845L8.40588 29.7939L8.10657 29.4691L8.34031 28.9817L9.16102 28.1637L9.94173 27.1491L9.84764 26.8157L9.2692 26.6789L6.52811 27.1149L5.46235 27.4912L3.5618 27.6649L3.4251 27.112L3.46771 26.6162L3.89519 25.7099L3.85519 23.4698L4.10894 22.2528L5.166 21.888L6.46254 20.0954L8.56258 17.9749L10.7567 18.0149L11.6343 17.4278L12.9364 17.3936L13.1729 17.8182L13.3211 18.2258L14.4637 18.8129L16.4811 18.7188L16.9712 18.488L17.4471 18.1659L16.5124 17.1228L16.8088 16.8264L17.6551 16.7922L18.5727 17.0373L18.6154 17.2767L18.3732 17.6044L18.0883 18.1773L18.3589 18.2885L20.969 17.9408L23.6988 18.22L24.5679 18.069L26.7135 18.0804L27.0982 17.7213L26.4484 17.2682L25.8131 17.1114L25.3856 16.8919L24.9581 16.5699L26.3203 15.5581L27.0897 15.3644L30.7169 14.7402L33.4153 14.4296L33.4496 14.1959H33.0592L29.5742 13.6771L28.7337 13.2782L27.5683 12.3234L27.3147 12.0526L27.0211 11.5852L27.1978 10.5906L27.4144 9.78977L27.8446 9.32515L29.238 9.25392L34.0138 10.069L37.4159 9.58173L41.1344 10.7673L44.6934 10.5278L45.4258 9.99495L46.3176 8.2764L51.344 5.415L53.1021 3.91876L54.9884 3.09789L58.2225 2.18595L60.9267 0.977516L61.6989 0.837833L68.1898 1.41639L72.6492 1.4905L74.6951 0.34764L75.8833 0.732419L75.7722 1.13999L75.5557 1.4905L75.6212 2.19447L76.3166 3.22905L77.026 3.93294L79.1062 4.94185L81.9982 4.09254L82.4655 4.18665L83.0555 4.42313L84.0755 7.15059L84.8677 8.11106L85.8821 8.76372L86.7169 8.89201L87.3354 8.21082L87.814 7.9372L88.8597 7.82039L90.5723 8.7552L91.165 9.71845L94.0798 10.4624L96.7555 10.8356L97.9096 11.6508L101.676 12.4659L103.084 12.3405L105.443 11.4855L110.037 10.5478L113.088 11.856L113.915 12.027L114.627 11.913L115.653 12.2721L116.747 12.0783L120.124 10.5336L121.181 9.65574L122.301 9.43065L123.292 8.9034L125.937 7.17912L126.68 6.16168ZM2.40769 20.7053L0.569922 21.0273L0 20.711L0.575662 20.0811L1.64698 19.6907L1.99464 19.645L2.46474 20.272L2.40769 20.7053Z" fill="black"/>
</svg>
